<?xml version="1.0" encoding="utf-8"?>
<!-- Generator: Adobe Illustrator 24.3.0, SVG Export Plug-In . SVG Version: 6.00 Build 0)  -->
<svg version="1.1" id="Layer_1" xmlns="http://www.w3.org/2000/svg" xmlns:xlink="http://www.w3.org/1999/xlink" x="0px" y="0px"
	 viewBox="0 0 100 100" style="enable-background:new 0 0 100 100;" xml:space="preserve">
<style type="text/css">
	.st0{fill:#F1F2F2;}
	.st1{fill:url(#SVGID_1_);}
	.st2{fill:url(#SVGID_2_);}
	.st3{fill:url(#SVGID_3_);}
	.st4{fill:url(#SVGID_4_);}
	.st5{fill:url(#SVGID_5_);}
	.st6{fill:url(#SVGID_6_);}
	.st7{fill:url(#SVGID_7_);}
	.st8{fill:url(#SVGID_8_);}
	.st9{fill:url(#SVGID_9_);}
	.st10{fill:url(#SVGID_10_);}
</style>
<circle class="st0" cx="49.97" cy="50.08" r="45.25"/>
<linearGradient id="SVGID_1_" gradientUnits="userSpaceOnUse" x1="20.7075" y1="65.2379" x2="79.2285" y2="65.2379">
	<stop  offset="0" style="stop-color:#27AAE1"/>
	<stop  offset="0.1382" style="stop-color:#2A9FE4"/>
	<stop  offset="0.7077" style="stop-color:#3775F0"/>
	<stop  offset="1" style="stop-color:#3C65F5"/>
</linearGradient>
<path class="st1" d="M27.69,53.61c-0.35-0.98-0.22-1.23,0.76-1.58c2.88-1.02,4.94-0.34,6.64,2.23c1.12,1.7,2.26,3.39,3.31,5.13
	c0.36,0.59,0.77,0.63,1.2,0.56c-0.28-1.18-0.62-2.33-0.82-3.5c-0.14-0.86,0.17-1.12,1.05-1.12c4.39,0,8.77-0.01,13.16,0.02
	c0.36,0,0.78,0.16,1.05,0.39c1.4,1.18,2.76,2.4,4.14,3.6c0.72,0.63,1.07,0.71,2.15,0.47c0-0.69-0.01-1.39,0-2.09
	c0.01-0.75,0.26-1.01,1.02-1.01c1.54-0.01,3.07,0,4.72,0c0-0.62,0-1.22,0-1.81c0-0.25-0.01-0.5,0-0.75c0.02-0.59,0.3-0.92,0.79-0.92
	c0.5-0.01,0.83,0.35,0.84,0.95c0.01,0.81,0,1.62,0,2.53c0.25,0,0.46,0,0.68,0c2.6,0,5.2,0,7.8,0c0.17,0,0.33-0.01,0.5,0.01
	c0.48,0.06,0.76,0.34,0.76,0.82c0,0.46-0.3,0.72-0.74,0.78c-0.2,0.03-0.41,0.01-0.62,0.01c-2.76,0-5.53,0-8.33,0
	c0,6.28,0,12.52,0,18.84c0.22,0,0.44,0,0.66,0c3.18,0,6.36,0,9.54,0c0.17,0,0.33-0.01,0.5,0.01c0.47,0.06,0.77,0.31,0.78,0.81
	c0.01,0.48-0.24,0.8-0.71,0.88c-0.33,0.05-0.66,0.03-1,0.03c-3.43,0-6.86,0-10.29,0c-1,0-1.25-0.25-1.25-1.25c0-1.04,0-2.07,0-3.2
	c-0.57,0-1.1,0-1.63,0c-0.98,0-1.95,0-2.93,0c-0.92,0-1.17-0.26-1.17-1.2c0-0.33,0-0.65,0-1.02c-0.24-0.01-0.42-0.03-0.6-0.03
	c-0.62,0-1.25-0.05-1.87,0.01c-3.3,0.3-6.38-0.41-9.44-1.64c-4.77-1.92-9.64-3.61-14.46-5.41c-0.31-0.11-0.61-0.26-0.88-0.44
	c-3.87-2.65-7.74-5.31-11.61-7.97c-0.87-0.6-0.85-0.82-0.17-1.66c1.8-2.23,3.88-2.43,6.24-1.51C27.52,53.59,27.6,53.59,27.69,53.61z
	 M22.92,55.73c0.13,0.1,0.2,0.17,0.29,0.22c3.6,2.47,7.19,4.94,10.79,7.4c0.2,0.14,0.44,0.24,0.67,0.33
	c5.95,2.21,11.9,4.42,17.86,6.62c0.19,0.07,0.4,0.17,0.6,0.17c2.31,0,4.61-0.01,6.92-0.02c0.03,0,0.07-0.04,0.12-0.08
	c0-2.86,0-5.74,0-8.69c-0.39,0-0.74-0.04-1.08,0.01c-0.74,0.09-1.3-0.19-1.84-0.69c-1.27-1.17-2.6-2.27-3.87-3.43
	c-0.38-0.34-0.75-0.49-1.27-0.49c-3.66,0.02-7.32,0.01-10.98,0.01c-0.23,0-0.45,0-0.68,0c0.09,1.74,1.34,2.95,3.01,2.95
	c0.73,0,1.46,0,2.18,0c1.58,0,3.16-0.01,4.74,0.01c0.56,0,0.91,0.35,0.92,0.81c0,0.47-0.34,0.79-0.91,0.82c-0.17,0.01-0.33,0-0.5,0
	c-3.64,0-7.28,0.02-10.91-0.02c-0.53-0.01-1.12-0.15-1.58-0.41c-3.4-1.92-6.76-3.9-10.15-5.84c-0.37-0.21-0.79-0.39-1.2-0.5
	C24.88,54.59,23.82,54.71,22.92,55.73z M62.02,58.36c0,4.8,0,9.54,0,14.29c1.33,0,2.61,0,3.93,0c0-4.77,0-9.52,0-14.29
	C64.62,58.36,63.34,58.36,62.02,58.36z M29.7,53.39c0.55,1.04,0.94,2.13,2.16,2.68c1.15,0.51,2.19,1.25,3.28,1.88
	c0.15,0.08,0.3,0.15,0.6,0.29c-0.8-1.23-1.45-2.37-2.24-3.4c-0.44-0.57-1.07-1.03-1.7-1.41C31.16,53.03,30.42,53.05,29.7,53.39z"/>
<linearGradient id="SVGID_2_" gradientUnits="userSpaceOnUse" x1="28.8261" y1="36.9575" x2="60.2408" y2="36.9575">
	<stop  offset="0" style="stop-color:#27AAE1"/>
	<stop  offset="0.1382" style="stop-color:#2A9FE4"/>
	<stop  offset="0.7077" style="stop-color:#3775F0"/>
	<stop  offset="1" style="stop-color:#3C65F5"/>
</linearGradient>
<path class="st2" d="M28.83,36.97c-0.01-8.65,7-15.68,15.69-15.71c8.67-0.03,15.7,6.97,15.73,15.65c0.03,8.7-7,15.75-15.7,15.75
	C35.88,52.66,28.84,45.63,28.83,36.97z M48.25,34.8c1.16,0.26,2.26,0.47,3.33,0.75c2.16,0.55,3.4,2.16,3.41,4.4
	c0.01,1.87,0,3.74,0,5.61c0,0.17,0.02,0.34,0.04,0.58c4.68-5.14,4.98-13.92-1.02-19.47c-5.88-5.44-15.1-4.83-20.27,1.36
	c-5.03,6.02-3.51,14.18,0.35,18.08c0-0.3,0-0.52,0-0.74c0-1.75-0.01-3.49,0-5.24c0.02-2.39,1.32-4.05,3.65-4.62
	c1.01-0.25,2.03-0.46,3.08-0.69c-2.89-2.76-2.33-6.38-0.44-8.34c2.11-2.2,5.44-2.41,7.78-0.48c1.15,0.95,1.86,2.18,2.05,3.66
	C50.47,31.68,49.77,33.39,48.25,34.8z M53.36,43.78c0-1.2,0.01-2.41,0-3.61c-0.01-1.54-0.72-2.49-2.22-2.91
	c-4.34-1.22-8.68-1.24-13.03-0.02c-1.55,0.43-2.32,1.43-2.32,3.04c0,2.37-0.01,4.73,0.02,7.1c0,0.26,0.16,0.61,0.37,0.77
	c4.86,3.78,11.93,3.81,16.8,0.07c0.2-0.16,0.36-0.5,0.37-0.76C53.38,46.23,53.36,45.01,53.36,43.78z M44.46,34.41
	c2.27,0.01,4.04-1.75,4.04-4c0-2.21-1.82-4.02-4.05-4.02c-2.21-0.01-3.98,1.75-4,3.99C40.42,32.62,42.2,34.41,44.46,34.41z"/>
<linearGradient id="SVGID_3_" gradientUnits="userSpaceOnUse" x1="70.6503" y1="73.2227" x2="72.2644" y2="73.2227">
	<stop  offset="0" style="stop-color:#27AAE1"/>
	<stop  offset="0.1382" style="stop-color:#2A9FE4"/>
	<stop  offset="0.7077" style="stop-color:#3775F0"/>
	<stop  offset="1" style="stop-color:#3C65F5"/>
</linearGradient>
<path class="st3" d="M71.35,72.42c0.55-0.01,0.94,0.37,0.91,0.82c-0.04,0.48-0.32,0.76-0.8,0.79c-0.45,0.03-0.84-0.38-0.81-0.83
	C70.68,72.71,70.96,72.45,71.35,72.42z"/>
<linearGradient id="SVGID_4_" gradientUnits="userSpaceOnUse" x1="41.1937" y1="42.963" x2="47.8685" y2="42.963">
	<stop  offset="0" style="stop-color:#27AAE1"/>
	<stop  offset="0.1382" style="stop-color:#2A9FE4"/>
	<stop  offset="0.7077" style="stop-color:#3775F0"/>
	<stop  offset="1" style="stop-color:#3C65F5"/>
</linearGradient>
<path class="st4" d="M44.53,48.87c-0.26-0.17-0.51-0.26-0.65-0.44c-0.86-1.06-1.72-2.13-2.54-3.23c-0.15-0.21-0.19-0.61-0.1-0.86
	c0.78-2.21,1.58-4.41,2.44-6.59c0.12-0.3,0.52-0.59,0.85-0.67c0.44-0.11,0.69,0.27,0.84,0.67c0.82,2.17,1.67,4.33,2.45,6.52
	c0.1,0.29,0.03,0.76-0.15,1.02c-0.75,1.04-1.56,2.05-2.38,3.04C45.11,48.54,44.82,48.67,44.53,48.87z M44.47,46.51
	c0.45-0.56,0.9-1.07,1.29-1.63c0.13-0.19,0.19-0.54,0.11-0.76c-0.31-0.96-0.68-1.91-1.04-2.85c-0.1-0.27-0.22-0.54-0.37-0.9
	c-0.51,1.36-0.98,2.6-1.42,3.85c-0.06,0.16-0.03,0.42,0.06,0.55C43.52,45.34,43.98,45.89,44.47,46.51z"/>
<linearGradient id="SVGID_5_" gradientUnits="userSpaceOnUse" x1="43.0051" y1="43.4297" x2="45.9023" y2="43.4297">
	<stop  offset="0" style="stop-color:#27AAE1"/>
	<stop  offset="0.1382" style="stop-color:#2A9FE4"/>
	<stop  offset="0.7077" style="stop-color:#3775F0"/>
	<stop  offset="1" style="stop-color:#3C65F5"/>
</linearGradient>
<path class="st5" d="M44.47,46.51c-0.49-0.61-0.95-1.17-1.37-1.75c-0.1-0.13-0.12-0.39-0.06-0.55c0.44-1.25,0.91-2.48,1.42-3.85
	c0.15,0.37,0.27,0.63,0.37,0.9c0.35,0.95,0.73,1.89,1.04,2.85c0.07,0.22,0.02,0.57-0.11,0.76C45.37,45.43,44.92,45.94,44.47,46.51z"
	/>
</svg>
