<?xml version="1.0" encoding="utf-8"?>
<!-- Generator: Adobe Illustrator 24.3.0, SVG Export Plug-In . SVG Version: 6.00 Build 0)  -->
<svg version="1.1" id="Layer_1" xmlns="http://www.w3.org/2000/svg" xmlns:xlink="http://www.w3.org/1999/xlink" x="0px" y="0px"
	 viewBox="0 0 600 600" style="enable-background:new 0 0 600 600;" xml:space="preserve">
<style type="text/css">
	.st0{fill:#FFFFFF;stroke:#231F20;stroke-miterlimit:10;}
	.st1{fill:#F4F7FF;}
	.st2{fill:#3A4ACE;}
	.st3{fill:none;stroke:#FFFFFF;stroke-miterlimit:10;}
	.st4{fill:#FFFFFF;}
	.st5{fill:#A6D0F4;}
	.st6{fill:#CBDCEB;}
	.st7{fill:#333333;}
	.st8{fill:url(#SVGID_1_);}
	.st9{fill:#615D6C;}
	.st10{fill:url(#SVGID_2_);}
	.st11{fill:#4D4D4D;}
	.st12{fill:url(#SVGID_3_);}
	.st13{enable-background:new    ;}
	.st14{fill:#535685;}
	.st15{fill:#696FA3;}
	.st16{fill:#7B81B3;}
	.st17{fill:#E72E34;}
	.st18{fill:#FF5F55;}
	.st19{fill:none;}
	.st20{fill:url(#SVGID_4_);}
	.st21{fill:url(#SVGID_5_);}
	.st22{fill:url(#SVGID_6_);}
	.st23{fill:#FF8D02;}
	.st24{fill:#FFC757;}
	.st25{fill:#FFE3AB;}
	.st26{fill:#FF4540;}
	.st27{fill:#FF9554;}
	.st28{fill:#E1E8F2;}
	.st29{fill:#171E26;}
	.st30{fill:#1F2F3F;}
	.st31{fill:#94C3FF;}
	.st32{fill:#F9FBFC;}
	.st33{fill:#673E29;}
	.st34{fill:#FDEAB4;}
	.st35{fill:url(#SVGID_7_);}
	.st36{fill:url(#SVGID_8_);}
	.st37{fill:url(#SVGID_9_);}
	.st38{fill:url(#SVGID_10_);}
	.st39{fill:url(#SVGID_11_);}
	.st40{fill:url(#SVGID_12_);}
	.st41{fill:url(#SVGID_13_);}
	.st42{fill:url(#SVGID_14_);}
	.st43{fill:url(#SVGID_15_);}
	.st44{fill:url(#SVGID_16_);}
	.st45{fill:#113570;}
	.st46{fill:url(#SVGID_17_);}
	.st47{fill:url(#SVGID_18_);}
	.st48{fill:url(#SVGID_19_);}
	.st49{fill:#C7BFCE;}
	.st50{fill:#113C7A;}
	.st51{fill:#FF7240;}
	.st52{fill:#CB6A50;}
	.st53{fill:#DBDBDB;}
	.st54{fill:#F58688;}
	.st55{fill:#F5A588;}
	.st56{fill:#CF7A68;}
	.st57{fill:#F5B99C;}
	.st58{fill:#E18B70;}
	.st59{fill:#D78C63;}
	.st60{fill:#FFC5A8;}
	.st61{fill:#BAC0D2;}
	.st62{fill:#C7C9D7;}
	.st63{opacity:0.2;fill:#777DB2;}
	.st64{fill:url(#SVGID_20_);}
	.st65{fill:url(#SVGID_21_);}
	.st66{fill:url(#SVGID_22_);}
	.st67{fill:#F2F8FD;}
	
		.st68{fill:none;stroke:#FFFFFF;stroke-width:2;stroke-linecap:round;stroke-linejoin:round;stroke-miterlimit:10;stroke-dasharray:0,5;}
	.st69{opacity:0.53;}
	.st70{fill:#BDC5CB;}
	.st71{fill:#EAF1F7;}
	.st72{fill:#4385FF;}
	.st73{fill:#DFDFDF;}
	.st74{fill:#1196C3;}
	.st75{fill:#EA5E7A;}
	.st76{fill:#86E563;}
	.st77{fill:none;stroke:#F9FBFC;stroke-width:0.7827;stroke-miterlimit:10;}
	.st78{fill:none;stroke:#C7D8F2;stroke-width:0.7827;stroke-miterlimit:10;}
	.st79{fill:#F2F9FF;}
	.st80{fill:#E6F4FF;}
	.st81{fill:#AEC4E1;}
	.st82{fill:#C7D8F2;}
	.st83{fill:#4B5CC0;}
	.st84{fill:#FF8161;}
	.st85{fill:#575973;}
	.st86{fill:#63687A;}
	.st87{opacity:0.41;}
	.st88{fill:#9B97F8;}
	.st89{fill:#DEDFFF;}
	.st90{fill:#2AB774;}
	.st91{fill:#FBC93B;}
	.st92{fill:#8182EE;}
	.st93{fill:#007CFF;}
	.st94{opacity:0.2;}
	.st95{opacity:0.8;fill:#FFFFFF;}
	.st96{opacity:0.4;fill:#007CFF;}
	.st97{opacity:0.6;}
	.st98{fill:#DBE6F7;}
	.st99{fill:#BBD4F2;}
	.st100{fill:#A4C8F2;}
	.st101{fill:#4F60D9;}
	.st102{fill:#707FFF;}
	.st103{fill:#1D38C8;}
	.st104{opacity:0.5;}
	.st105{fill:#3B3E7D;}
	.st106{fill:#1A2E35;}
	.st107{fill:#FFC3BD;}
	.st108{opacity:0.5;fill:#FFFFFF;}
	.st109{opacity:0.1;fill:#FFFFFF;}
	.st110{fill:#FF847F;}
	.st111{opacity:0.5;fill:#007CFF;}
	.st112{fill:#E1E1E1;}
	.st113{opacity:0.38;fill:#8FCEFD;}
	.st114{fill:#59C2FC;}
	.st115{fill:#202060;}
	.st116{fill:url(#SVGID_23_);}
	.st117{fill:url(#SVGID_24_);}
	.st118{fill:url(#SVGID_25_);}
	.st119{fill:url(#SVGID_26_);}
	.st120{fill:#9F88FA;}
	.st121{fill:#4141AA;}
	.st122{fill:url(#SVGID_27_);}
	.st123{fill:url(#SVGID_28_);}
	.st124{opacity:0.35;fill:#4141AA;}
	.st125{fill:url(#SVGID_29_);}
	.st126{fill:url(#SVGID_30_);}
	.st127{fill:url(#SVGID_31_);}
	.st128{fill:url(#SVGID_32_);}
	.st129{fill:#8FCEFD;}
	.st130{fill:url(#SVGID_33_);}
	.st131{fill:url(#SVGID_34_);}
	.st132{fill:url(#SVGID_35_);}
	.st133{fill:url(#SVGID_36_);}
	.st134{fill:url(#SVGID_37_);}
	.st135{fill:none;stroke:#8FCEFD;stroke-miterlimit:10;stroke-dasharray:3;}
	.st136{fill:#FFFFFF;stroke:url(#SVGID_38_);stroke-miterlimit:10;}
	.st137{fill:none;stroke:url(#SVGID_39_);stroke-miterlimit:10;}
	.st138{opacity:0.7;}
	.st139{fill:none;stroke:#A7A9AC;stroke-width:0.5;stroke-miterlimit:10;}
	.st140{fill:url(#SVGID_40_);}
	.st141{fill:url(#SVGID_41_);}
</style>
<g>
	<rect x="2.41" y="-0.12" class="st4" width="600" height="600"/>
	<g>
		<g>
			<g>
				<polygon class="st93" points="514.64,59.18 425,79.61 413.52,86.71 				"/>
				<polyline class="st94" points="425,79.61 413.52,86.71 514.64,59.18 				"/>
			</g>
			<polygon class="st93" points="514.64,59.18 425,79.61 433.44,85.82 			"/>
			<g>
				<g>
					<path class="st93" d="M468.39,76.84L423.42,75c-2.26-0.09-4.03-2.01-3.93-4.27l0.84-20.36c0.09-2.26,2.01-4.03,4.27-3.93
						l44.97,1.85c2.26,0.09,4.03,2.01,3.93,4.27l-0.84,20.36C472.57,75.17,470.65,76.94,468.39,76.84z"/>
					<path class="st95" d="M468.39,76.84L423.42,75c-2.26-0.09-4.03-2.01-3.93-4.27l0.84-20.36c0.09-2.26,2.01-4.03,4.27-3.93
						l44.97,1.85c2.26,0.09,4.03,2.01,3.93,4.27l-0.84,20.36C472.57,75.17,470.65,76.94,468.39,76.84z"/>
				</g>
				<path class="st96" d="M446.3,67.08c-0.13,0-0.25-0.04-0.36-0.11l-23.24-16.04c-0.29-0.2-0.36-0.6-0.16-0.89
					c0.2-0.29,0.6-0.36,0.89-0.16l22.91,15.81l24.13-13.88c0.31-0.18,0.69-0.07,0.87,0.23c0.18,0.3,0.07,0.69-0.23,0.87L446.61,67
					C446.51,67.05,446.4,67.08,446.3,67.08z"/>
				<path class="st96" d="M469.94,73.29c-0.13,0-0.25-0.04-0.36-0.11l-13.32-9.26c-0.29-0.2-0.36-0.6-0.16-0.89
					c0.2-0.29,0.6-0.36,0.89-0.16l13.32,9.26c0.29,0.2,0.36,0.6,0.16,0.89C470.34,73.2,470.14,73.29,469.94,73.29z"/>
				<path class="st96" d="M422.22,71.33c-0.22,0-0.43-0.11-0.55-0.32c-0.18-0.3-0.07-0.69,0.23-0.87l14.04-8.14
					c0.3-0.18,0.69-0.07,0.87,0.23c0.18,0.3,0.07,0.69-0.23,0.87l-14.04,8.14C422.44,71.31,422.33,71.33,422.22,71.33z"/>
			</g>
			<polygon class="st93" points="514.64,59.18 437.79,74.89 433.44,85.82 			"/>
			<polygon class="st94" points="514.64,59.18 437.79,74.89 433.44,85.82 			"/>
			<polygon class="st93" points="514.64,59.18 437.79,74.89 461.99,83.66 			"/>
		</g>
		<g>
			<g>
				<path class="st93" d="M408.1,95.51c-0.29,0-0.55-0.2-0.62-0.49c-0.08-0.34,0.13-0.69,0.47-0.77c1.43-0.34,2.83-0.78,4.15-1.31
					c0.33-0.13,0.7,0.03,0.83,0.35c0.13,0.33-0.03,0.7-0.35,0.83c-1.38,0.56-2.84,1.02-4.34,1.37
					C408.2,95.5,408.15,95.51,408.1,95.51z"/>
				<path class="st93" d="M360.23,315.55c-0.34,0-0.62-0.27-0.64-0.61c-0.02-0.35,0.25-0.65,0.61-0.67
					c2.95-0.14,5.95-0.41,8.93-0.81c0.35-0.05,0.67,0.2,0.71,0.55c0.05,0.35-0.2,0.67-0.55,0.71c-3.01,0.4-6.05,0.67-9.03,0.82
					C360.25,315.55,360.24,315.55,360.23,315.55z M378.09,313.2c-0.29,0-0.56-0.2-0.62-0.5c-0.07-0.34,0.14-0.68,0.49-0.76
					c3-0.65,5.91-1.42,8.66-2.28c0.33-0.11,0.69,0.08,0.8,0.42c0.11,0.34-0.08,0.69-0.42,0.8c-2.78,0.88-5.74,1.66-8.77,2.32
					C378.18,313.2,378.14,313.2,378.09,313.2z M395.23,307.7c-0.24,0-0.47-0.14-0.58-0.37c-0.15-0.32-0.01-0.7,0.31-0.84
					c2.32-1.06,4.42-2.2,6.22-3.39c0.51-0.33,1.01-0.67,1.51-1.01c0.29-0.2,0.69-0.12,0.89,0.17c0.2,0.29,0.12,0.69-0.17,0.89
					c-0.51,0.35-1.02,0.69-1.53,1.02c-1.86,1.22-4.01,2.39-6.39,3.48C395.41,307.68,395.32,307.7,395.23,307.7z M410.22,297.78
					c-0.18,0-0.36-0.07-0.48-0.22c-0.23-0.27-0.2-0.67,0.06-0.9c2.36-2.05,4.47-4.18,6.26-6.33c0.23-0.27,0.63-0.31,0.9-0.08
					c0.27,0.23,0.31,0.63,0.08,0.9c-1.83,2.2-3.99,4.38-6.41,6.48C410.52,297.73,410.37,297.78,410.22,297.78z M421.55,283.89
					c-0.1,0-0.2-0.02-0.29-0.07c-0.31-0.16-0.44-0.54-0.28-0.86c0.41-0.8,0.79-1.62,1.14-2.44c0.77-1.85,1.42-3.82,1.91-5.86
					c0.08-0.34,0.43-0.55,0.77-0.47c0.34,0.08,0.55,0.43,0.47,0.77c-0.51,2.11-1.18,4.14-1.98,6.05c-0.36,0.85-0.75,1.7-1.18,2.53
					C422,283.77,421.78,283.89,421.55,283.89z M425.97,266.54c-0.01,0-0.03,0-0.04,0c-0.35-0.02-0.62-0.33-0.59-0.68
					c0.12-1.74,0.17-3.57,0.17-5.6c0-1.11-0.02-2.23-0.05-3.35c-0.01-0.35,0.27-0.64,0.62-0.65c0.35-0.03,0.64,0.27,0.65,0.62
					c0.03,1.13,0.05,2.26,0.05,3.38c0,2.06-0.06,3.92-0.18,5.69C426.58,266.28,426.3,266.54,425.97,266.54z M425.72,248.52
					c-0.34,0-0.62-0.27-0.64-0.61c-0.12-2.59-0.22-5.37-0.22-8.15l0-0.89c0-0.35,0.25-0.66,0.64-0.63c0.35,0,0.63,0.29,0.63,0.64
					l0,0.88c0,2.75,0.11,5.52,0.22,8.09c0.02,0.35-0.26,0.65-0.61,0.66C425.74,248.52,425.73,248.52,425.72,248.52z M480.19,240.68
					c-1.16,0-2.29-0.03-3.38-0.08c-0.35-0.02-0.62-0.31-0.61-0.66c0.02-0.35,0.31-0.62,0.66-0.61c1.07,0.05,2.19,0.08,3.33,0.08
					c2,0,3.88-0.09,5.59-0.28c0.35-0.04,0.66,0.21,0.7,0.56c0.04,0.35-0.22,0.66-0.56,0.7
					C484.16,240.58,482.23,240.68,480.19,240.68z M467.84,240.03c-0.02,0-0.03,0-0.05,0c-2.99-0.23-6.01-0.5-9-0.81
					c-0.35-0.04-0.6-0.35-0.57-0.7c0.04-0.35,0.35-0.61,0.7-0.57c2.97,0.31,5.99,0.58,8.96,0.81c0.35,0.03,0.61,0.33,0.59,0.68
					C468.45,239.78,468.17,240.03,467.84,240.03z M494.55,238.21c-0.24,0-0.47-0.14-0.58-0.37c-0.14-0.32,0-0.7,0.32-0.84
					c2.86-1.29,5.04-3.14,6.48-5.5c0.18-0.3,0.57-0.39,0.88-0.21c0.3,0.18,0.39,0.58,0.21,0.88c-1.57,2.58-3.94,4.59-7.04,6
					C494.73,238.19,494.64,238.21,494.55,238.21z M449.9,238.18c-0.03,0-0.05,0-0.08-0.01c-2.97-0.38-5.98-0.81-8.94-1.27
					c-0.35-0.05-0.59-0.38-0.53-0.73c0.05-0.35,0.38-0.58,0.73-0.53c2.96,0.46,5.95,0.89,8.91,1.27c0.35,0.05,0.6,0.36,0.55,0.71
					C450.49,237.95,450.22,238.18,449.9,238.18z M432.09,235.41c-0.04,0-0.08,0-0.11-0.01c-2.95-0.54-5.93-1.12-8.86-1.73
					c-0.34-0.07-0.57-0.41-0.49-0.75c0.07-0.34,0.41-0.56,0.75-0.49c2.93,0.61,5.9,1.19,8.83,1.73c0.35,0.06,0.58,0.39,0.51,0.74
					C432.66,235.19,432.39,235.41,432.09,235.41z M414.44,231.72c-0.05,0-0.1-0.01-0.15-0.02c-2.92-0.69-5.86-1.42-8.76-2.19
					c-0.34-0.09-0.54-0.44-0.45-0.78c0.09-0.34,0.44-0.54,0.78-0.45c2.89,0.76,5.83,1.49,8.73,2.18c0.34,0.08,0.55,0.42,0.47,0.77
					C414.99,231.52,414.73,231.72,414.44,231.72z M426.13,230.53c-0.03,0-0.06,0-0.09-0.01c-0.35-0.05-0.59-0.38-0.54-0.72
					c0.47-3.15,1.22-6.13,2.23-8.86c0.12-0.33,0.49-0.5,0.82-0.38c0.33,0.12,0.5,0.49,0.38,0.82c-0.98,2.65-1.7,5.54-2.16,8.6
					C426.72,230.3,426.44,230.53,426.13,230.53z M397.01,227.13c-0.06,0-0.12-0.01-0.18-0.03c-2.88-0.84-5.78-1.73-8.64-2.64
					c-0.33-0.11-0.52-0.47-0.41-0.8c0.11-0.34,0.47-0.52,0.8-0.41c2.84,0.91,5.74,1.8,8.61,2.63c0.34,0.1,0.53,0.45,0.43,0.79
					C397.54,226.95,397.28,227.13,397.01,227.13z M503.13,223.84c-0.3,0-0.57-0.21-0.62-0.52c-0.48-2.47-2-4.88-4.51-7.14
					c-0.26-0.24-0.28-0.64-0.05-0.9c0.24-0.26,0.64-0.28,0.9-0.05c2.72,2.45,4.38,5.09,4.91,7.85c0.07,0.35-0.16,0.68-0.5,0.75
					C503.21,223.84,503.17,223.84,503.13,223.84z M379.84,221.62c-0.07,0-0.14-0.01-0.21-0.04c-2.9-1.03-5.75-2.1-8.47-3.17
					c-0.33-0.13-0.49-0.5-0.36-0.83c0.13-0.33,0.5-0.49,0.83-0.36c2.7,1.07,5.54,2.13,8.42,3.16c0.33,0.12,0.51,0.48,0.39,0.81
					C380.35,221.45,380.1,221.62,379.84,221.62z M363.08,214.95c-0.09,0-0.18-0.02-0.26-0.06c-2.8-1.25-5.55-2.56-8.17-3.89
					c-0.31-0.16-0.44-0.54-0.28-0.86c0.16-0.31,0.54-0.44,0.86-0.28c2.6,1.32,5.33,2.62,8.11,3.86c0.32,0.14,0.47,0.52,0.32,0.84
					C363.56,214.81,363.33,214.95,363.08,214.95z M432.53,213.85c-0.13,0-0.26-0.04-0.38-0.12c-0.28-0.21-0.34-0.61-0.13-0.89
					c1.74-2.35,3.77-4.32,6.06-5.85c0.22-0.15,0.44-0.29,0.66-0.43c0.3-0.19,0.69-0.1,0.88,0.2c0.19,0.3,0.1,0.69-0.2,0.88
					c-0.21,0.13-0.42,0.27-0.62,0.4c-2.16,1.45-4.1,3.32-5.74,5.55C432.92,213.76,432.72,213.85,432.53,213.85z M490.96,211.3
					c-0.1,0-0.21-0.02-0.3-0.08c-1.07-0.58-2.12-1.11-3.11-1.6c-1.62-0.8-3.29-1.54-4.98-2.2c-0.33-0.13-0.49-0.5-0.36-0.83
					c0.13-0.33,0.5-0.49,0.83-0.36c1.72,0.67,3.43,1.43,5.08,2.24c1.01,0.5,2.07,1.04,3.15,1.62c0.31,0.17,0.42,0.55,0.26,0.86
					C491.4,211.18,491.18,211.3,490.96,211.3z M347.02,206.78c-0.11,0-0.22-0.03-0.32-0.09c-2.66-1.54-5.25-3.16-7.68-4.79
					c-0.29-0.2-0.37-0.59-0.17-0.88c0.2-0.29,0.59-0.37,0.88-0.17c2.42,1.62,4.98,3.22,7.61,4.75c0.3,0.18,0.41,0.57,0.23,0.87
					C347.45,206.67,347.24,206.78,347.02,206.78z M474.21,204.78c-0.05,0-0.1-0.01-0.15-0.02c-2.89-0.69-5.85-1.17-8.8-1.44
					c-0.35-0.03-0.61-0.34-0.58-0.69c0.03-0.35,0.35-0.61,0.69-0.58c3.01,0.28,6.03,0.77,8.98,1.47c0.34,0.08,0.55,0.42,0.47,0.77
					C474.76,204.58,474.49,204.78,474.21,204.78z M447.39,204.37c-0.29,0-0.55-0.2-0.62-0.49c-0.08-0.34,0.13-0.69,0.47-0.77
					c2.09-0.5,4.31-0.86,6.8-1.08c0.74-0.07,1.49-0.12,2.24-0.16c0.36-0.02,0.65,0.25,0.67,0.6c0.02,0.35-0.25,0.65-0.6,0.67
					c-0.73,0.04-1.46,0.09-2.19,0.16c-2.43,0.22-4.59,0.56-6.62,1.05C447.49,204.36,447.44,204.37,447.39,204.37z M332.08,196.72
					c-0.14,0-0.28-0.04-0.39-0.14c-2.42-1.89-4.73-3.88-6.89-5.89c-0.26-0.24-0.27-0.64-0.03-0.9c0.24-0.26,0.64-0.27,0.9-0.03
					c2.13,1.99,4.43,3.94,6.81,5.82c0.28,0.22,0.32,0.62,0.11,0.89C332.45,196.64,332.26,196.72,332.08,196.72z M318.93,184.42
					c-0.18,0-0.35-0.07-0.48-0.22c-2.02-2.29-3.9-4.7-5.6-7.16c-0.2-0.29-0.13-0.69,0.16-0.89c0.29-0.2,0.69-0.13,0.89,0.16
					c1.67,2.42,3.52,4.78,5.5,7.04c0.23,0.26,0.21,0.67-0.06,0.9C319.23,184.37,319.08,184.42,318.93,184.42z M308.73,169.6
					c-0.23,0-0.45-0.13-0.57-0.34c-1.41-2.74-2.63-5.55-3.6-8.35c-0.12-0.33,0.06-0.69,0.39-0.81c0.33-0.12,0.7,0.06,0.81,0.39
					c0.96,2.75,2.15,5.5,3.53,8.19c0.16,0.31,0.04,0.7-0.27,0.86C308.93,169.58,308.83,169.6,308.73,169.6z M302.87,152.62
					c-0.3,0-0.57-0.22-0.63-0.52c-0.12-0.68-0.23-1.36-0.33-2.04c-0.31-2.22-0.47-4.5-0.47-6.78l0-0.26c0-0.35,0.29-0.65,0.64-0.63
					c0.35,0,0.64,0.29,0.63,0.64l0,0.26c0,2.22,0.15,4.44,0.46,6.6c0.09,0.67,0.2,1.33,0.32,2c0.06,0.35-0.17,0.68-0.51,0.74
					C302.94,152.62,302.91,152.62,302.87,152.62z M302.93,134.69c-0.04,0-0.08,0-0.12-0.01c-0.35-0.06-0.57-0.4-0.51-0.74
					c0.55-2.98,1.36-5.94,2.41-8.79c0.12-0.33,0.49-0.5,0.82-0.38c0.33,0.12,0.5,0.49,0.38,0.82c-1.03,2.78-1.82,5.67-2.36,8.58
					C303.5,134.48,303.24,134.69,302.93,134.69z M309.15,117.86c-0.11,0-0.22-0.03-0.32-0.09c-0.3-0.18-0.41-0.57-0.23-0.87
					c1.55-2.66,3.32-5.16,5.28-7.43c0.23-0.27,0.63-0.3,0.9-0.07c0.27,0.23,0.3,0.63,0.07,0.9c-1.91,2.22-3.64,4.66-5.15,7.24
					C309.58,117.75,309.37,117.86,309.15,117.86z M320.88,104.31c-0.19,0-0.38-0.08-0.5-0.25c-0.22-0.28-0.17-0.68,0.11-0.89
					c2.34-1.82,4.93-3.46,7.71-4.87c0.31-0.16,0.7-0.04,0.86,0.28c0.16,0.31,0.03,0.7-0.28,0.86c-2.7,1.38-5.23,2.97-7.51,4.74
					C321.15,104.26,321.01,104.31,320.88,104.31z M399.15,96.4C399.15,96.4,399.15,96.4,399.15,96.4c-2.71-0.04-5.59-0.29-9.07-0.8
					c-0.35-0.05-0.59-0.37-0.54-0.72c0.05-0.35,0.37-0.59,0.72-0.54c3.42,0.5,6.25,0.75,8.89,0.78c0.35,0,0.63,0.29,0.63,0.65
					C399.78,96.12,399.5,96.4,399.15,96.4z M336.81,96.08c-0.27,0-0.52-0.17-0.61-0.44c-0.11-0.33,0.07-0.69,0.41-0.8
					c2.72-0.89,5.68-1.66,8.79-2.28c0.35-0.07,0.68,0.15,0.75,0.5c0.07,0.34-0.15,0.68-0.5,0.75c-3.06,0.61-5.97,1.37-8.65,2.24
					C336.94,96.07,336.88,96.08,336.81,96.08z M381.3,94.07c-0.04,0-0.08,0-0.12-0.01c-2.73-0.51-5.83-1.09-8.86-1.51
					c-0.35-0.05-0.59-0.37-0.54-0.72c0.05-0.35,0.37-0.59,0.72-0.54c3.06,0.43,6.17,1.01,8.91,1.52c0.35,0.06,0.57,0.4,0.51,0.74
					C381.86,93.86,381.6,94.07,381.3,94.07z M354.44,92.43c-0.32,0-0.59-0.24-0.63-0.56c-0.04-0.35,0.21-0.67,0.56-0.71
					c1.62-0.19,3.35-0.35,5.13-0.49c1.13-0.09,2.32-0.14,3.52-0.14l0.42,0c0.35,0,0.63,0.29,0.63,0.64c0,0.35-0.34,0.63-0.64,0.63
					l-0.41,0c-1.17,0-2.32,0.04-3.42,0.13c-1.77,0.14-3.48,0.31-5.08,0.49C354.49,92.43,354.46,92.43,354.44,92.43z"/>
				<path class="st93" d="M351.09,315.59c-0.01,0-0.02,0-0.03,0c-1.52-0.07-3.02-0.17-4.48-0.31c-0.35-0.03-0.61-0.35-0.57-0.7
					c0.03-0.35,0.34-0.61,0.7-0.57c1.43,0.14,2.92,0.24,4.41,0.31c0.35,0.02,0.62,0.31,0.61,0.66
					C351.71,315.32,351.43,315.59,351.09,315.59z"/>
			</g>
			<g class="st97">
				<path class="st4" d="M408.1,95.51c-0.29,0-0.55-0.2-0.62-0.49c-0.08-0.34,0.13-0.69,0.47-0.77c1.43-0.34,2.83-0.78,4.15-1.31
					c0.33-0.13,0.7,0.03,0.83,0.35c0.13,0.33-0.03,0.7-0.35,0.83c-1.38,0.56-2.84,1.02-4.34,1.37
					C408.2,95.5,408.15,95.51,408.1,95.51z"/>
				<path class="st4" d="M360.23,315.55c-0.34,0-0.62-0.27-0.64-0.61c-0.02-0.35,0.25-0.65,0.61-0.67c2.95-0.14,5.95-0.41,8.93-0.81
					c0.35-0.05,0.67,0.2,0.71,0.55c0.05,0.35-0.2,0.67-0.55,0.71c-3.01,0.4-6.05,0.67-9.03,0.82
					C360.25,315.55,360.24,315.55,360.23,315.55z M378.09,313.2c-0.29,0-0.56-0.2-0.62-0.5c-0.07-0.34,0.14-0.68,0.49-0.76
					c3-0.65,5.91-1.42,8.66-2.28c0.33-0.11,0.69,0.08,0.8,0.42c0.11,0.34-0.08,0.69-0.42,0.8c-2.78,0.88-5.74,1.66-8.77,2.32
					C378.18,313.2,378.14,313.2,378.09,313.2z M395.23,307.7c-0.24,0-0.47-0.14-0.58-0.37c-0.15-0.32-0.01-0.7,0.31-0.84
					c2.32-1.06,4.42-2.2,6.22-3.39c0.51-0.33,1.01-0.67,1.51-1.01c0.29-0.2,0.69-0.12,0.89,0.17c0.2,0.29,0.12,0.69-0.17,0.89
					c-0.51,0.35-1.02,0.69-1.53,1.02c-1.86,1.22-4.01,2.39-6.39,3.48C395.41,307.68,395.32,307.7,395.23,307.7z M410.22,297.78
					c-0.18,0-0.36-0.07-0.48-0.22c-0.23-0.27-0.2-0.67,0.06-0.9c2.36-2.05,4.47-4.18,6.26-6.33c0.23-0.27,0.63-0.31,0.9-0.08
					c0.27,0.23,0.31,0.63,0.08,0.9c-1.83,2.2-3.99,4.38-6.41,6.48C410.52,297.73,410.37,297.78,410.22,297.78z M421.55,283.89
					c-0.1,0-0.2-0.02-0.29-0.07c-0.31-0.16-0.44-0.54-0.28-0.86c0.41-0.8,0.79-1.62,1.14-2.44c0.77-1.85,1.42-3.82,1.91-5.86
					c0.08-0.34,0.43-0.55,0.77-0.47c0.34,0.08,0.55,0.43,0.47,0.77c-0.51,2.11-1.18,4.14-1.98,6.05c-0.36,0.85-0.75,1.7-1.18,2.53
					C422,283.77,421.78,283.89,421.55,283.89z M425.97,266.54c-0.01,0-0.03,0-0.04,0c-0.35-0.02-0.62-0.33-0.59-0.68
					c0.12-1.74,0.17-3.57,0.17-5.6c0-1.11-0.02-2.23-0.05-3.35c-0.01-0.35,0.27-0.64,0.62-0.65c0.35-0.03,0.64,0.27,0.65,0.62
					c0.03,1.13,0.05,2.26,0.05,3.38c0,2.06-0.06,3.92-0.18,5.69C426.58,266.28,426.3,266.54,425.97,266.54z M425.72,248.52
					c-0.34,0-0.62-0.27-0.64-0.61c-0.12-2.59-0.22-5.37-0.22-8.15l0-0.89c0-0.35,0.25-0.66,0.64-0.63c0.35,0,0.63,0.29,0.63,0.64
					l0,0.88c0,2.75,0.11,5.52,0.22,8.09c0.02,0.35-0.26,0.65-0.61,0.66C425.74,248.52,425.73,248.52,425.72,248.52z M480.19,240.68
					c-1.16,0-2.29-0.03-3.38-0.08c-0.35-0.02-0.62-0.31-0.61-0.66c0.02-0.35,0.31-0.62,0.66-0.61c1.07,0.05,2.19,0.08,3.33,0.08
					c2,0,3.88-0.09,5.59-0.28c0.35-0.04,0.66,0.21,0.7,0.56c0.04,0.35-0.22,0.66-0.56,0.7
					C484.16,240.58,482.23,240.68,480.19,240.68z M467.84,240.03c-0.02,0-0.03,0-0.05,0c-2.99-0.23-6.01-0.5-9-0.81
					c-0.35-0.04-0.6-0.35-0.57-0.7c0.04-0.35,0.35-0.61,0.7-0.57c2.97,0.31,5.99,0.58,8.96,0.81c0.35,0.03,0.61,0.33,0.59,0.68
					C468.45,239.78,468.17,240.03,467.84,240.03z M494.55,238.21c-0.24,0-0.47-0.14-0.58-0.37c-0.14-0.32,0-0.7,0.32-0.84
					c2.86-1.29,5.04-3.14,6.48-5.5c0.18-0.3,0.57-0.39,0.88-0.21c0.3,0.18,0.39,0.58,0.21,0.88c-1.57,2.58-3.94,4.59-7.04,6
					C494.73,238.19,494.64,238.21,494.55,238.21z M449.9,238.18c-0.03,0-0.05,0-0.08-0.01c-2.97-0.38-5.98-0.81-8.94-1.27
					c-0.35-0.05-0.59-0.38-0.53-0.73c0.05-0.35,0.38-0.58,0.73-0.53c2.96,0.46,5.95,0.89,8.91,1.27c0.35,0.05,0.6,0.36,0.55,0.71
					C450.49,237.95,450.22,238.18,449.9,238.18z M432.09,235.41c-0.04,0-0.08,0-0.11-0.01c-2.95-0.54-5.93-1.12-8.86-1.73
					c-0.34-0.07-0.57-0.41-0.49-0.75c0.07-0.34,0.41-0.56,0.75-0.49c2.93,0.61,5.9,1.19,8.83,1.73c0.35,0.06,0.58,0.39,0.51,0.74
					C432.66,235.19,432.39,235.41,432.09,235.41z M414.44,231.72c-0.05,0-0.1-0.01-0.15-0.02c-2.92-0.69-5.86-1.42-8.76-2.19
					c-0.34-0.09-0.54-0.44-0.45-0.78c0.09-0.34,0.44-0.54,0.78-0.45c2.89,0.76,5.83,1.49,8.73,2.18c0.34,0.08,0.55,0.42,0.47,0.77
					C414.99,231.52,414.73,231.72,414.44,231.72z M426.13,230.53c-0.03,0-0.06,0-0.09-0.01c-0.35-0.05-0.59-0.38-0.54-0.72
					c0.47-3.15,1.22-6.13,2.23-8.86c0.12-0.33,0.49-0.5,0.82-0.38c0.33,0.12,0.5,0.49,0.38,0.82c-0.98,2.65-1.7,5.54-2.16,8.6
					C426.72,230.3,426.44,230.53,426.13,230.53z M397.01,227.13c-0.06,0-0.12-0.01-0.18-0.03c-2.88-0.84-5.78-1.73-8.64-2.64
					c-0.33-0.11-0.52-0.47-0.41-0.8c0.11-0.34,0.47-0.52,0.8-0.41c2.84,0.91,5.74,1.8,8.61,2.63c0.34,0.1,0.53,0.45,0.43,0.79
					C397.54,226.95,397.28,227.13,397.01,227.13z M503.13,223.84c-0.3,0-0.57-0.21-0.62-0.52c-0.48-2.47-2-4.88-4.51-7.14
					c-0.26-0.24-0.28-0.64-0.05-0.9c0.24-0.26,0.64-0.28,0.9-0.05c2.72,2.45,4.38,5.09,4.91,7.85c0.07,0.35-0.16,0.68-0.5,0.75
					C503.21,223.84,503.17,223.84,503.13,223.84z M379.84,221.62c-0.07,0-0.14-0.01-0.21-0.04c-2.9-1.03-5.75-2.1-8.47-3.17
					c-0.33-0.13-0.49-0.5-0.36-0.83c0.13-0.33,0.5-0.49,0.83-0.36c2.7,1.07,5.54,2.13,8.42,3.16c0.33,0.12,0.51,0.48,0.39,0.81
					C380.35,221.45,380.1,221.62,379.84,221.62z M363.08,214.95c-0.09,0-0.18-0.02-0.26-0.06c-2.8-1.25-5.55-2.56-8.17-3.89
					c-0.31-0.16-0.44-0.54-0.28-0.86c0.16-0.31,0.54-0.44,0.86-0.28c2.6,1.32,5.33,2.62,8.11,3.86c0.32,0.14,0.47,0.52,0.32,0.84
					C363.56,214.81,363.33,214.95,363.08,214.95z M432.53,213.85c-0.13,0-0.26-0.04-0.38-0.12c-0.28-0.21-0.34-0.61-0.13-0.89
					c1.74-2.35,3.77-4.32,6.06-5.85c0.22-0.15,0.44-0.29,0.66-0.43c0.3-0.19,0.69-0.1,0.88,0.2c0.19,0.3,0.1,0.69-0.2,0.88
					c-0.21,0.13-0.42,0.27-0.62,0.4c-2.16,1.45-4.1,3.32-5.74,5.55C432.92,213.76,432.72,213.85,432.53,213.85z M490.96,211.3
					c-0.1,0-0.21-0.02-0.3-0.08c-1.07-0.58-2.12-1.11-3.11-1.6c-1.62-0.8-3.29-1.54-4.98-2.2c-0.33-0.13-0.49-0.5-0.36-0.83
					c0.13-0.33,0.5-0.49,0.83-0.36c1.72,0.67,3.43,1.43,5.08,2.24c1.01,0.5,2.07,1.04,3.15,1.62c0.31,0.17,0.42,0.55,0.26,0.86
					C491.4,211.18,491.18,211.3,490.96,211.3z M347.02,206.78c-0.11,0-0.22-0.03-0.32-0.09c-2.66-1.54-5.25-3.16-7.68-4.79
					c-0.29-0.2-0.37-0.59-0.17-0.88c0.2-0.29,0.59-0.37,0.88-0.17c2.42,1.62,4.98,3.22,7.61,4.75c0.3,0.18,0.41,0.57,0.23,0.87
					C347.45,206.67,347.24,206.78,347.02,206.78z M474.21,204.78c-0.05,0-0.1-0.01-0.15-0.02c-2.89-0.69-5.85-1.17-8.8-1.44
					c-0.35-0.03-0.61-0.34-0.58-0.69c0.03-0.35,0.35-0.61,0.69-0.58c3.01,0.28,6.03,0.77,8.98,1.47c0.34,0.08,0.55,0.42,0.47,0.77
					C474.76,204.58,474.49,204.78,474.21,204.78z M447.39,204.37c-0.29,0-0.55-0.2-0.62-0.49c-0.08-0.34,0.13-0.69,0.47-0.77
					c2.09-0.5,4.31-0.86,6.8-1.08c0.74-0.07,1.49-0.12,2.24-0.16c0.36-0.02,0.65,0.25,0.67,0.6c0.02,0.35-0.25,0.65-0.6,0.67
					c-0.73,0.04-1.46,0.09-2.19,0.16c-2.43,0.22-4.59,0.56-6.62,1.05C447.49,204.36,447.44,204.37,447.39,204.37z M332.08,196.72
					c-0.14,0-0.28-0.04-0.39-0.14c-2.42-1.89-4.73-3.88-6.89-5.89c-0.26-0.24-0.27-0.64-0.03-0.9c0.24-0.26,0.64-0.27,0.9-0.03
					c2.13,1.99,4.43,3.94,6.81,5.82c0.28,0.22,0.32,0.62,0.11,0.89C332.45,196.64,332.26,196.72,332.08,196.72z M318.93,184.42
					c-0.18,0-0.35-0.07-0.48-0.22c-2.02-2.29-3.9-4.7-5.6-7.16c-0.2-0.29-0.13-0.69,0.16-0.89c0.29-0.2,0.69-0.13,0.89,0.16
					c1.67,2.42,3.52,4.78,5.5,7.04c0.23,0.26,0.21,0.67-0.06,0.9C319.23,184.37,319.08,184.42,318.93,184.42z M308.73,169.6
					c-0.23,0-0.45-0.13-0.57-0.34c-1.41-2.74-2.63-5.55-3.6-8.35c-0.12-0.33,0.06-0.69,0.39-0.81c0.33-0.12,0.7,0.06,0.81,0.39
					c0.96,2.75,2.15,5.5,3.53,8.19c0.16,0.31,0.04,0.7-0.27,0.86C308.93,169.58,308.83,169.6,308.73,169.6z M302.87,152.62
					c-0.3,0-0.57-0.22-0.63-0.52c-0.12-0.68-0.23-1.36-0.33-2.04c-0.31-2.22-0.47-4.5-0.47-6.78l0-0.26c0-0.35,0.29-0.65,0.64-0.63
					c0.35,0,0.64,0.29,0.63,0.64l0,0.26c0,2.22,0.15,4.44,0.46,6.6c0.09,0.67,0.2,1.33,0.32,2c0.06,0.35-0.17,0.68-0.51,0.74
					C302.94,152.62,302.91,152.62,302.87,152.62z M302.93,134.69c-0.04,0-0.08,0-0.12-0.01c-0.35-0.06-0.57-0.4-0.51-0.74
					c0.55-2.98,1.36-5.94,2.41-8.79c0.12-0.33,0.49-0.5,0.82-0.38c0.33,0.12,0.5,0.49,0.38,0.82c-1.03,2.78-1.82,5.67-2.36,8.58
					C303.5,134.48,303.24,134.69,302.93,134.69z M309.15,117.86c-0.11,0-0.22-0.03-0.32-0.09c-0.3-0.18-0.41-0.57-0.23-0.87
					c1.55-2.66,3.32-5.16,5.28-7.43c0.23-0.27,0.63-0.3,0.9-0.07c0.27,0.23,0.3,0.63,0.07,0.9c-1.91,2.22-3.64,4.66-5.15,7.24
					C309.58,117.75,309.37,117.86,309.15,117.86z M320.88,104.31c-0.19,0-0.38-0.08-0.5-0.25c-0.22-0.28-0.17-0.68,0.11-0.89
					c2.34-1.82,4.93-3.46,7.71-4.87c0.31-0.16,0.7-0.04,0.86,0.28c0.16,0.31,0.03,0.7-0.28,0.86c-2.7,1.38-5.23,2.97-7.51,4.74
					C321.15,104.26,321.01,104.31,320.88,104.31z M399.15,96.4C399.15,96.4,399.15,96.4,399.15,96.4c-2.71-0.04-5.59-0.29-9.07-0.8
					c-0.35-0.05-0.59-0.37-0.54-0.72c0.05-0.35,0.37-0.59,0.72-0.54c3.42,0.5,6.25,0.75,8.89,0.78c0.35,0,0.63,0.29,0.63,0.65
					C399.78,96.12,399.5,96.4,399.15,96.4z M336.81,96.08c-0.27,0-0.52-0.17-0.61-0.44c-0.11-0.33,0.07-0.69,0.41-0.8
					c2.72-0.89,5.68-1.66,8.79-2.28c0.35-0.07,0.68,0.15,0.75,0.5c0.07,0.34-0.15,0.68-0.5,0.75c-3.06,0.61-5.97,1.37-8.65,2.24
					C336.94,96.07,336.88,96.08,336.81,96.08z M381.3,94.07c-0.04,0-0.08,0-0.12-0.01c-2.73-0.51-5.83-1.09-8.86-1.51
					c-0.35-0.05-0.59-0.37-0.54-0.72c0.05-0.35,0.37-0.59,0.72-0.54c3.06,0.43,6.17,1.01,8.91,1.52c0.35,0.06,0.57,0.4,0.51,0.74
					C381.86,93.86,381.6,94.07,381.3,94.07z M354.44,92.43c-0.32,0-0.59-0.24-0.63-0.56c-0.04-0.35,0.21-0.67,0.56-0.71
					c1.62-0.19,3.35-0.35,5.13-0.49c1.13-0.09,2.32-0.14,3.52-0.14l0.42,0c0.35,0,0.63,0.29,0.63,0.64c0,0.35-0.34,0.63-0.64,0.63
					l-0.41,0c-1.17,0-2.32,0.04-3.42,0.13c-1.77,0.14-3.48,0.31-5.08,0.49C354.49,92.43,354.46,92.43,354.44,92.43z"/>
				<path class="st4" d="M351.09,315.59c-0.01,0-0.02,0-0.03,0c-1.52-0.07-3.02-0.17-4.48-0.31c-0.35-0.03-0.61-0.35-0.57-0.7
					c0.03-0.35,0.34-0.61,0.7-0.57c1.43,0.14,2.92,0.24,4.41,0.31c0.35,0.02,0.62,0.31,0.61,0.66
					C351.71,315.32,351.43,315.59,351.09,315.59z"/>
			</g>
		</g>
	</g>
	<path class="st98" d="M139.86,61.96c0,1.24-0.5,2.36-1.32,3.18c-0.81,0.82-1.94,1.32-3.17,1.32H39.11c-2.47,0-4.5-2.03-4.5-4.5
		c0-1.24,0.5-2.36,1.32-3.18c0.81-0.82,1.94-1.32,3.17-1.32h4.55c1.8-4.18,5.95-7.09,10.78-7.09c3.25,0,6.19,1.32,8.32,3.46
		c2.84-4.81,8.07-8.04,14.05-8.04c1.65,0,3.23,0.25,4.73,0.7c3.13-5.89,9.32-9.9,16.46-9.9c8.57,0,15.78,5.79,17.95,13.66
		c1.58-0.79,3.36-1.24,5.25-1.24c5.34,0,9.85,3.57,11.27,8.45h2.9C137.84,57.46,139.86,59.48,139.86,61.96z"/>
	<path class="st98" d="M332.38,73.27c0,1.24-0.5,2.36-1.32,3.18c-0.81,0.82-1.94,1.32-3.17,1.32h-96.26c-2.47,0-4.5-2.03-4.5-4.5
		c0-1.24,0.5-2.36,1.32-3.18c0.81-0.82,1.94-1.32,3.17-1.32h4.55c1.8-4.18,5.95-7.09,10.78-7.09c3.25,0,6.19,1.32,8.32,3.46
		c2.84-4.81,8.07-8.04,14.05-8.04c1.65,0,3.23,0.25,4.73,0.7c3.13-5.89,9.32-9.9,16.46-9.9c8.57,0,15.78,5.79,17.95,13.66
		c1.58-0.79,3.36-1.24,5.25-1.24c5.34,0,9.85,3.57,11.27,8.45h2.9C330.35,68.76,332.38,70.79,332.38,73.27z"/>
	<path class="st98" d="M456.72,485.44c14.71-6.13,27.5-14.64,20.4-19.74c-7.11-5.11-28.85,9.96-38.91,27.7l-4.87,5.22
		c7.56-12.8,9.77-31.3,3.23-34.82c-6.5-3.49-6.85,8.96-5.28,20.38c1.2,8.7-0.01,14.66-0.93,17.63l-22.98,24.65
		c11.91-20.31,15.37-49.51,5.03-55.07c-10.31-5.54-10.87,14.21-8.38,32.34c1.89,13.7,0.01,23.13-1.44,27.87l-4.58,4.91
		c0.73,0.93,1.46,1.85,2.2,2.77l27.35-29.32c3.27-0.83,8-1.51,14.16-1.1c11.51,0.77,23.9-0.45,19.96-6.69
		c-3.42-5.41-17.49-3.56-29.16,2.46l9.46-10.14C445.44,491.86,450.37,488.09,456.72,485.44z"/>
	<g>
		<g>
			<path class="st99" d="M115.33,391.52c19.27,12.78,12.15,33.75,29.5,38.55c17.34,4.8,27.11,19.61,19.42,33.51
				c-7.7,13.9-14.13,23.7,0.91,35.71c15.05,12.01,17,36.24,0.88,40.67c-4.01,1.11-8.36,2.3-12.63,3.46
				c-1.16,0.32-2.33,0.63-3.47,0.94c-0.26,0.07-0.53,0.15-0.79,0.22c-17.15,4.67-35.3-4.14-41.74-20.71
				c-2.6-6.71-3.02-13.91,1.38-20.58c13.77-20.91-11.86-19.69-17.46-36.36c-6.45-19.2,10.43-28.83,4.13-42.57
				C86.69,405.25,96.05,378.74,115.33,391.52z"/>
			<g>
				<path class="st100" d="M116.12,421.72l37.28,121.69c-1.16,0.32-2.33,0.63-3.47,0.94l-37.25-121.58
					c-0.29-0.95,0.24-1.95,1.19-2.24C114.83,420.24,115.83,420.78,116.12,421.72z"/>
			</g>
		</g>
		<g>
			<path class="st98" d="M25.88,404.21c21.26,3.78,22.95,24.38,39.6,22.05c16.64-2.34,30.51,6.71,29.09,21.47
				c-1.42,14.77-3.29,25.56,14.06,30.25c17.35,4.69,28.04,24.71,15.87,34.5c-3.03,2.44-6.31,5.08-9.53,7.65
				c-0.88,0.7-1.76,1.41-2.62,2.1c-0.2,0.16-0.4,0.32-0.6,0.48c-12.95,10.38-31.78,9.58-43.45-2.22
				c-4.72-4.78-7.76-10.79-6.47-18.14c4.02-23.03-17.48-12.45-28.47-24.64c-12.67-14.05-1.79-28.57-12.29-37.99
				C6.46,426.63,4.62,400.44,25.88,404.21z"/>
			<g>
				<g>
					<path class="st99" d="M37.79,429.79l77.18,90.35c-0.88,0.7-1.76,1.41-2.62,2.1l-77.11-90.27c-0.6-0.7-0.52-1.76,0.18-2.36
						C36.13,429,37.19,429.08,37.79,429.79z"/>
				</g>
			</g>
		</g>
	</g>
	<g>
		<g>
			<g>
				<g>
					<path class="st101" d="M555.81,394.04c3.56,0,6.46,2.9,6.46,6.46s-2.9,6.46-6.46,6.46c-3.56,0-6.46-2.9-6.46-6.46
						S552.25,394.04,555.81,394.04z M555.81,396.07c-2.44,0-4.43,1.99-4.43,4.43c0,2.44,1.99,4.43,4.43,4.43s4.43-1.99,4.43-4.43
						C560.25,398.06,558.26,396.07,555.81,396.07z"/>
				</g>
				<g>
					<path class="st102" d="M549.24,361.21c3.56,0,6.46,2.9,6.46,6.46c0,3.56-2.9,6.46-6.46,6.46c-3.56,0-6.46-2.9-6.46-6.46
						C542.78,364.11,545.68,361.21,549.24,361.21z M549.24,363.23c-2.44,0-4.43,1.99-4.43,4.43c0,2.44,1.99,4.43,4.43,4.43
						c2.44,0,4.43-1.99,4.43-4.43C553.67,365.22,551.68,363.23,549.24,363.23z"/>
				</g>
				<g>
					<g>
						<g>
							<path class="st103" d="M529.59,352.11c0,0.56,0.45,1.01,1.01,1.01h4.47c0.56,0,1.01-0.45,1.01-1.01
								c0-0.56-0.45-1.01-1.01-1.01h-4.47C530.04,351.1,529.59,351.55,529.59,352.11z"/>
						</g>
						<g>
							<path class="st103" d="M521.77,352.11c0,0.56,0.45,1.01,1.01,1.01h4.47c0.56,0,1.01-0.45,1.01-1.01
								c0-0.56-0.45-1.01-1.01-1.01h-4.47C522.22,351.1,521.77,351.55,521.77,352.11z"/>
						</g>
					</g>
					<g>
						<g>
							<path class="st103" d="M527.91,345.84v4.01c0,0.56,0.45,1.01,1.01,1.01c0.56,0,1.01-0.45,1.01-1.01v-4.01
								c0-0.56-0.45-1.01-1.01-1.01C528.37,344.82,527.91,345.28,527.91,345.84z"/>
						</g>
						<g>
							<path class="st103" d="M527.91,354.37v4.01c0,0.56,0.45,1.01,1.01,1.01c0.56,0,1.01-0.45,1.01-1.01v-4.01
								c0-0.56-0.45-1.01-1.01-1.01C528.37,353.35,527.91,353.81,527.91,354.37z"/>
						</g>
					</g>
				</g>
				<g>
					<g>
						<g>
							<g>
								<path class="st102" d="M536.88,386.61c0,0.56,0.45,1.01,1.01,1.01h4.47c0.56,0,1.01-0.45,1.01-1.01
									c0-0.56-0.45-1.01-1.01-1.01h-4.47C537.33,385.6,536.88,386.05,536.88,386.61z"/>
							</g>
							<g>
								<path class="st102" d="M529.06,386.61c0,0.56,0.45,1.01,1.01,1.01h4.47c0.56,0,1.01-0.45,1.01-1.01
									c0-0.56-0.45-1.01-1.01-1.01h-4.47C529.51,385.6,529.06,386.05,529.06,386.61z"/>
							</g>
						</g>
						<g>
							<g>
								<path class="st102" d="M535.2,380.34v4.01c0,0.56,0.45,1.01,1.01,1.01c0.56,0,1.01-0.45,1.01-1.01v-4.01
									c0-0.56-0.45-1.01-1.01-1.01C535.65,379.33,535.2,379.78,535.2,380.34z"/>
							</g>
							<g>
								<path class="st102" d="M535.2,388.87v4.01c0,0.56,0.45,1.01,1.01,1.01c0.56,0,1.01-0.45,1.01-1.01v-4.01
									c0-0.56-0.45-1.01-1.01-1.01C535.65,387.86,535.2,388.31,535.2,388.87z"/>
							</g>
						</g>
					</g>
				</g>
			</g>
		</g>
	</g>
	<g>
		<g>
			<g>
				<g>
					<path class="st101" d="M66.07,237.72c0,3.56-2.9,6.46-6.46,6.46c-3.56,0-6.46-2.9-6.46-6.46c0-3.56,2.9-6.46,6.46-6.46
						C63.17,231.26,66.07,234.16,66.07,237.72z M55.18,237.72c0,2.44,1.99,4.43,4.43,4.43s4.43-1.99,4.43-4.43
						c0-2.44-1.99-4.43-4.43-4.43S55.18,235.28,55.18,237.72z"/>
				</g>
				<g>
					<g>
						<path class="st103" d="M72.64,204.89c0,3.56-2.9,6.46-6.46,6.46c-3.56,0-6.46-2.9-6.46-6.46c0-3.56,2.9-6.46,6.46-6.46
							C69.74,198.43,72.64,201.33,72.64,204.89z M61.75,204.89c0,2.44,1.99,4.43,4.43,4.43c2.44,0,4.43-1.99,4.43-4.43
							c0-2.44-1.99-4.43-4.43-4.43C63.74,200.46,61.75,202.45,61.75,204.89z"/>
					</g>
				</g>
				<g>
					<g>
						<g>
							<path class="st101" d="M85.83,189.33c0,0.56-0.45,1.01-1.01,1.01h-4.47c-0.56,0-1.01-0.45-1.01-1.01
								c0-0.56,0.45-1.01,1.01-1.01h4.47C85.38,188.32,85.83,188.77,85.83,189.33z"/>
						</g>
						<g>
							<path class="st101" d="M93.65,189.33c0,0.56-0.45,1.01-1.01,1.01h-4.47c-0.56,0-1.01-0.45-1.01-1.01
								c0-0.56,0.45-1.01,1.01-1.01h4.47C93.2,188.32,93.65,188.77,93.65,189.33z"/>
						</g>
					</g>
					<g>
						<g>
							<path class="st101" d="M87.51,183.06v4.01c0,0.56-0.45,1.01-1.01,1.01c-0.56,0-1.01-0.45-1.01-1.01v-4.01
								c0-0.56,0.45-1.01,1.01-1.01C87.06,182.05,87.51,182.5,87.51,183.06z"/>
						</g>
						<g>
							<path class="st101" d="M87.51,191.59v4.01c0,0.56-0.45,1.01-1.01,1.01c-0.56,0-1.01-0.45-1.01-1.01v-4.01
								c0-0.56,0.45-1.01,1.01-1.01C87.06,190.58,87.51,191.03,87.51,191.59z"/>
						</g>
					</g>
				</g>
				<g>
					<g>
						<g>
							<g>
								<path class="st102" d="M78.55,223.84c0,0.56-0.45,1.01-1.01,1.01h-4.47c-0.56,0-1.01-0.45-1.01-1.01
									c0-0.56,0.45-1.01,1.01-1.01h4.47C78.09,222.82,78.55,223.28,78.55,223.84z"/>
							</g>
							<g>
								<path class="st102" d="M86.37,223.84c0,0.56-0.45,1.01-1.01,1.01h-4.47c-0.56,0-1.01-0.45-1.01-1.01
									c0-0.56,0.45-1.01,1.01-1.01h4.47C85.91,222.82,86.37,223.28,86.37,223.84z"/>
							</g>
						</g>
						<g>
							<g>
								<path class="st102" d="M80.22,217.56v4.01c0,0.56-0.45,1.01-1.01,1.01c-0.56,0-1.01-0.45-1.01-1.01v-4.01
									c0-0.56,0.45-1.01,1.01-1.01C79.77,216.55,80.22,217,80.22,217.56z"/>
							</g>
							<g>
								<path class="st102" d="M80.22,226.1v4.01c0,0.56-0.45,1.01-1.01,1.01c-0.56,0-1.01-0.45-1.01-1.01v-4.01
									c0-0.56,0.45-1.01,1.01-1.01C79.77,225.08,80.22,225.54,80.22,226.1z"/>
							</g>
						</g>
					</g>
				</g>
			</g>
		</g>
	</g>
	<g>
		<g>
			<path class="st101" d="M520.79,173.8v16.31c0,2.16,1.75,3.9,3.9,3.9h29.61l8.94,3.21c0.92,0.33,1.8-0.57,1.44-1.48l-3.38-8.73
				V173.8c0-2.16-1.75-3.9-3.91-3.9h-32.7C522.54,169.9,520.79,171.65,520.79,173.8z"/>
		</g>
		<g class="st104">
			<g>
				<path class="st102" d="M546.51,182.42c0,1.56,1.26,2.82,2.82,2.82c1.56,0,2.82-1.26,2.82-2.82s-1.26-2.82-2.82-2.82
					C547.78,179.6,546.51,180.86,546.51,182.42z"/>
				<path class="st102" d="M537.57,182.42c0,1.56,1.26,2.82,2.82,2.82c1.56,0,2.82-1.26,2.82-2.82s-1.26-2.82-2.82-2.82
					C538.84,179.6,537.57,180.86,537.57,182.42z"/>
				<path class="st102" d="M528.63,182.42c0,1.56,1.26,2.82,2.82,2.82c1.56,0,2.82-1.26,2.82-2.82s-1.26-2.82-2.82-2.82
					C529.9,179.6,528.63,180.86,528.63,182.42z"/>
			</g>
		</g>
	</g>
	<ellipse class="st98" cx="300" cy="544.13" rx="261.5" ry="16.54"/>
	<g>
		<g>
			<g>
				<path class="st101" d="M519.34,515.34c0,0-0.96,0.94-2.94,1.09c-0.6,0.05-1.28,0.02-2.07-0.14c-0.84-0.15-1.79-0.45-2.84-0.95
					c0,0,0.46-19.43-7.4-32.82c-7.86-13.38-18.26-31.87-9.94-41.35c8.32-9.48,21.73,3.7,26.12,25.89
					C524.66,489.25,519.34,515.34,519.34,515.34z"/>
			</g>
			<g>
				<path class="st103" d="M516.4,516.43c-0.6,0.05-1.28,0.02-2.07-0.14c2.52-34.49-13.14-61.14-13.29-61.41
					c-0.3-0.49-0.14-1.13,0.35-1.43c0.49-0.29,1.13-0.13,1.43,0.36C502.98,454.08,518.97,481.26,516.4,516.43z"/>
			</g>
		</g>
		<g>
			<g>
				<path class="st101" d="M546.29,483.98c-18.38,29.72-17.12,36.6-17.12,36.6l-2.41-0.43l-2.05-0.36l-2.93-0.52
					c-1.63-13.18,8.5-68.91,26.55-68.91C566.7,450.36,552.55,473.86,546.29,483.98z"/>
			</g>
			<g>
				<path class="st103" d="M545.59,466.88c-0.17,0.29-15.57,27.75-18.84,53.27l-2.05-0.36c3.36-25.92,18.9-53.63,19.07-53.93
					c0.28-0.5,0.92-0.67,1.42-0.39C545.7,465.75,545.87,466.38,545.59,466.88z"/>
			</g>
		</g>
		<g>
			<g>
				<path class="st101" d="M511.31,517.98l-2.12,0.57l-2.02,0.55l-1.21,0.33c0.08-0.26-0.85-2.54-13.78-19.82
					c-5.34-7.14-19.58-26.35-6.53-29.58C497.63,467.07,511.66,508.02,511.31,517.98z"/>
			</g>
			<g>
				<path class="st103" d="M509.2,518.55l-2.02,0.55c-3.73-16.65-18.87-37.09-19.04-37.31c-0.34-0.46-0.24-1.11,0.21-1.46
					c0.46-0.34,1.11-0.25,1.46,0.21C490.47,481.44,505.36,501.51,509.2,518.55z"/>
			</g>
		</g>
		<g>
			<path class="st105" d="M536.93,561.95c0,3.33-41.12,3.33-41.12,0v-48.89c0-0.51,0.41-0.92,0.92-0.92h39.29
				c0.51,0,0.92,0.41,0.92,0.92V561.95z"/>
		</g>
	</g>
	<g>
		<g>
			<path class="st106" d="M164.86,125.98c-8.6,1.91-18.6,13.97-8.72,26.29c9.88,12.32-6.67,6.93-9.24,28.48
				c-2.57,21.55,17.06,17.92,10.9,32.05c-6.16,14.13,36.61,36.52,63.31,19.55c26.7-16.97,29.19-53.5,20.85-66.4
				c-8.34-12.91-20.53-13.72-15.01-27.55c5.52-13.83-0.98-28.2-18.22-28.33c-12.99-0.1-5.2-9.19-23.09-9.11
				C170.74,101.03,157.55,111.5,164.86,125.98z"/>
			<path class="st4" d="M212.71,144c-2.34,0-4.23,1.89-4.23,4.24c0,2.34,1.89,4.23,4.23,4.23c2.34,0,4.24-1.89,4.24-4.23
				C216.95,145.89,215.05,144,212.71,144z M212.71,151.48c-1.79,0-3.24-1.45-3.24-3.24c0-1.8,1.45-3.26,3.24-3.26
				c1.8,0,3.26,1.45,3.26,3.26C215.96,150.03,214.51,151.48,212.71,151.48z"/>
			<path class="st106" d="M248.49,185.35c-0.02,0-0.05,0-0.07-0.01c-0.2-0.04-0.33-0.23-0.29-0.43c1.3-6.77-3.97-13.33-9.55-20.27
				c-6.52-8.1-13.9-17.29-11.3-28.23c2.22-9.33,1.23-17.13-2.79-21.95c-3.29-3.95-8.42-5.77-15.24-5.42
				c-6.25,0.32-8.11-1.37-10.07-3.16c-2.12-1.94-4.56-4.14-13.53-4.08c0,0,0,0,0,0c-0.2,0-0.36-0.16-0.36-0.36
				c0-0.2,0.16-0.36,0.36-0.37c0.11,0,0.21,0,0.32,0c9.04,0,11.52,2.27,13.71,4.27c1.93,1.76,3.59,3.28,9.54,2.97
				c7.06-0.36,12.39,1.54,15.83,5.68c4.17,5,5.21,13.02,2.94,22.58c-2.52,10.59,4.44,19.24,11.16,27.6
				c5.69,7.08,11.07,13.76,9.7,20.87C248.81,185.23,248.66,185.35,248.49,185.35z"/>
			<path class="st107" d="M282.67,157.58l-1.96,3.81c-0.74,1.43-0.74,3.13,0,4.56l3.45,6.69c1.38,2.67,3.97,4.52,6.95,4.94
				l1.84,0.26c3.68-6.09,3.18-15.39,3.18-15.39l0.15-2.67c0.13-2.37-1.53-4.33-3.83-4.49l-5.28-0.36
				C285.34,154.81,283.55,155.86,282.67,157.58z"/>
			<g>
				<path class="st93" d="M239.4,183.02c-0.08-0.06,0.08,0.16,0.15,0.27l0.31,0.44l0.7,0.94c0.49,0.64,1.03,1.26,1.58,1.89
					c1.11,1.25,2.28,2.48,3.51,3.65c2.46,2.35,5.18,4.44,8.01,6.3c5.66,3.74,11.98,6.29,18.55,7.33l1.24,0.17l0.62,0.09
					c0.07,0.01-0.11,0.01-0.15,0.03c-0.33,0.03-0.75,0.2-0.88,0.33c-0.28,0.26,0.4-0.13,1.04-1.08c1.39-1.92,2.64-5.22,3.58-8.55
					c0.93-3.39,1.64-7.03,2.14-10.71c0.27-1.84,0.43-3.71,0.59-5.58c0.16-1.83,0.28-3.81,0.28-5.48l16.74,0.81
					c-0.21,2.28-0.43,4.25-0.67,6.35c-0.24,2.07-0.56,4.14-0.86,6.21c-0.64,4.15-1.37,8.32-2.46,12.58
					c-0.53,2.14-1.16,4.3-1.97,6.51c-0.83,2.21-1.77,4.5-3.23,6.9c-1.48,2.35-3.47,5.09-7.26,7.23c-1.89,1.04-4.26,1.74-6.58,1.82
					c-0.54,0.02-1.21,0-1.63-0.02l-0.86-0.06l-1.72-0.12c-4.58-0.42-9.11-1.31-13.5-2.6c-4.37-1.35-8.63-3.02-12.68-5.08
					c-4.06-2.04-7.88-4.47-11.56-7.11c-1.84-1.32-3.63-2.72-5.38-4.21c-0.88-0.74-1.73-1.52-2.61-2.32l-1.31-1.24l-0.67-0.67
					c-0.25-0.26-0.42-0.42-0.8-0.87L239.4,183.02z"/>
				<path class="st108" d="M239.4,183.02c-0.08-0.06,0.08,0.16,0.15,0.27l0.31,0.44l0.7,0.94c0.49,0.64,1.03,1.26,1.58,1.89
					c1.11,1.25,2.28,2.48,3.51,3.65c2.46,2.35,5.18,4.44,8.01,6.3c5.66,3.74,11.98,6.29,18.55,7.33l1.24,0.17l0.62,0.09
					c0.07,0.01-0.11,0.01-0.15,0.03c-0.33,0.03-0.75,0.2-0.88,0.33c-0.28,0.26,0.4-0.13,1.04-1.08c1.39-1.92,2.64-5.22,3.58-8.55
					c0.93-3.39,1.64-7.03,2.14-10.71c0.27-1.84,0.43-3.71,0.59-5.58c0.16-1.83,0.28-3.81,0.28-5.48l16.74,0.81
					c-0.21,2.28-0.43,4.25-0.67,6.35c-0.24,2.07-0.56,4.14-0.86,6.21c-0.64,4.15-1.37,8.32-2.46,12.58
					c-0.53,2.14-1.16,4.3-1.97,6.51c-0.83,2.21-1.77,4.5-3.23,6.9c-1.48,2.35-3.47,5.09-7.26,7.23c-1.89,1.04-4.26,1.74-6.58,1.82
					c-0.54,0.02-1.21,0-1.63-0.02l-0.86-0.06l-1.72-0.12c-4.58-0.42-9.11-1.31-13.5-2.6c-4.37-1.35-8.63-3.02-12.68-5.08
					c-4.06-2.04-7.88-4.47-11.56-7.11c-1.84-1.32-3.63-2.72-5.38-4.21c-0.88-0.74-1.73-1.52-2.61-2.32l-1.31-1.24l-0.67-0.67
					c-0.25-0.26-0.42-0.42-0.8-0.87L239.4,183.02z"/>
			</g>
			<path class="st107" d="M204.5,534.36c-2.12-4.75-0.65-24.69-0.36-27.97c-3.68-1.92-16.32,0.45-16.32,0.45s3.53,20.97,1.41,27.52
				C194.11,537.06,204.5,534.36,204.5,534.36z"/>
			<path class="st107" d="M360.56,515.23c-3.99-3.33-12.36-21.54-13.54-24.61c-4.16-0.11-13.54,7.22-13.54,7.22
				s12.39,17.29,13.36,24.1C352.41,522.21,360.56,515.23,360.56,515.23z"/>
			<path class="st93" d="M217.45,545.94c-10.63,0-12.45-0.16-18.42-0.36c-5.12-0.18-6.34,0.46-10.45,0.36
				c-3.44-0.07-3.31-3.36-2.25-7.14c0.38-1.35,0.9-2.91,1.44-4.81c0.42-1.47,1.77-2.48,3.3-2.48h11.67c1.07,0,2.05,0.52,2.73,1.36
				c2.83,3.5,8.91,6.06,14.24,6.77C225.41,540.4,221.69,545.94,217.45,545.94z"/>
			<path class="st93" d="M381.54,523.35c-11.44,5.17-17.45,2.54-23.19,3.85c-4.92,1.11-4.77,2.04-9.67,3.44
				c-3.25,0.93-4.91-2.56-4.64-5.61c0.18-1.98,0.39-4.27,0.35-6.68c-0.02-0.88,0.47-1.7,1.27-2.06l11.38-5.16
				c0.75-0.34,1.62-0.23,2.26,0.28c4.53,3.62,14.49,8.18,21.48,5.83C386.18,515.45,385.35,521.62,381.54,523.35z"/>
			<path class="st106" d="M255.36,264.1c0,0,26.86,61.64,41.63,107.1c18.04,41.11,54.19,127.35,54.19,127.35
				c0.7,2.19-10.71,6.21-13.19,5.8c0,0-47.7-57.22-67.13-122.21c-50.51-63.37-65.38-114.24-65.38-114.24L255.36,264.1z"/>
			<path class="st94" d="M233.83,297.85c7.41,8.12,12.63,36.33,15.29,54.76c-10.46-15.41-18.65-29.5-24.96-41.59
				C224.9,304.12,227.92,299.06,233.83,297.85z"/>
			<path class="st106" d="M240.4,265.24c0,0,1.91,85.63-5.54,127.82c-7.82,44.3-32.02,97.73-30.31,126.81
				c-2.49,1.45-11.25,1.53-16.15,0c0,0-8.36-86.33,16.79-128.47c-5.44-42.19-19.96-96.82-7.07-122.94L240.4,265.24z"/>
			<g>
				<path class="st106" d="M205.78,513.81c0.05,1.47,0.18,4.02,0.56,5.97c0.14,0.7-0.34,1.36-1.04,1.47
					c-5.91,0.95-14.47-0.42-17.18-0.91c-0.52-0.09-0.91-0.51-1-1.03l-0.88-5.59c-0.12-0.76,0.48-1.45,1.25-1.44l17.07,0.33
					C205.22,512.63,205.76,513.15,205.78,513.81z"/>
				<path class="st109" d="M205.78,513.81c0.05,1.47,0.18,4.02,0.56,5.97c0.14,0.7-0.34,1.36-1.04,1.47
					c-5.91,0.95-14.47-0.42-17.18-0.91c-0.52-0.09-0.91-0.51-1-1.03l-0.88-5.59c-0.12-0.76,0.48-1.45,1.25-1.44l17.07,0.33
					C205.22,512.63,205.76,513.15,205.78,513.81z"/>
			</g>
			<g>
				<path class="st106" d="M349.88,492.23c0.73,1.38,2.05,3.83,3.1,5.61c0.35,0.59,0.15,1.33-0.43,1.69
					c-4.36,2.68-12.08,5.38-14.63,6.24c-0.51,0.17-1.06,0-1.38-0.43l-3.47-4.57c-0.47-0.62-0.26-1.52,0.45-1.87l14.73-7.19
					C348.84,491.41,349.56,491.64,349.88,492.23z"/>
				<path class="st109" d="M349.88,492.23c0.73,1.38,2.05,3.83,3.1,5.61c0.35,0.59,0.15,1.33-0.43,1.69
					c-4.36,2.68-12.08,5.38-14.63,6.24c-0.51,0.17-1.06,0-1.38-0.43l-3.47-4.57c-0.47-0.62-0.26-1.52,0.45-1.87l14.73-7.19
					C348.84,491.41,349.56,491.64,349.88,492.23z"/>
			</g>
			<g>
				<path class="st93" d="M243.94,191.54c1.42,5.46,3.72,11.47,6.48,24.68c2.55,11.12,4.4,30.68,4.94,47.88
					c-7.46,6.66-32.31,5.53-57.23,4.36c-0.08-16.21-6.73-31.16-24.84-64.36c-4.2-7.7-0.8-16.78,7.31-19.5
					c2.17-0.73,4.48-1.45,6.86-2.12c9.28-2.59,16.91-4.63,25.42-5.77c2.82-0.38,5.76-0.68,8.58-0.92
					C231.65,174.92,241.4,181.75,243.94,191.54z"/>
				<path class="st108" d="M243.94,191.54c1.42,5.46,3.72,11.47,6.48,24.68c2.55,11.12,4.4,30.68,4.94,47.88
					c-7.46,6.66-32.31,5.53-57.23,4.36c-0.08-16.21-6.73-31.16-24.84-64.36c-4.2-7.7-0.8-16.78,7.31-19.5
					c2.17-0.73,4.48-1.45,6.86-2.12c9.28-2.59,16.91-4.63,25.42-5.77c2.82-0.38,5.76-0.68,8.58-0.92
					C231.65,174.92,241.4,181.75,243.94,191.54z"/>
			</g>
			<path class="st4" d="M214.52,176.67l-25.66,5.49c0,0,20.77,8.66,37.4,22.02C230.8,181.35,214.52,176.67,214.52,176.67z"/>
			<path class="st107" d="M182.74,153.46c4.07,7.67,10.19,22.04,6.12,28.71c0,0,23.17,6.7,35.52,17.31
				c1.65-17.17-9.86-22.81-9.86-22.81c-9.78-0.07-11.83-7.05-12.16-13.66L182.74,153.46z"/>
			<path class="st4" d="M204.5,184.37c-7.35,0-15.29-1.76-15.73-1.85c-0.2-0.04-0.32-0.24-0.28-0.43c0.04-0.2,0.24-0.32,0.43-0.28
				c0.14,0.03,13.85,3.06,21.84,1.25c2.54-0.58,4.03-1.51,4.42-2.77c0.52-1.7-1.14-3.49-1.15-3.51c-0.14-0.15-0.13-0.38,0.02-0.51
				c0.15-0.14,0.38-0.13,0.51,0.02c0.08,0.09,1.96,2.12,1.32,4.22c-0.47,1.53-2.13,2.63-4.95,3.27
				C209.01,184.21,206.78,184.37,204.5,184.37z"/>
			<path class="st93" d="M214.83,184.57L214.83,184.57c-0.61,0.46-1.49,0.34-1.96-0.27l-0.8-1.06c-0.46-0.61-0.34-1.49,0.27-1.96
				l0,0c0.61-0.46,1.49-0.34,1.96,0.27l0.8,1.06C215.57,183.23,215.45,184.11,214.83,184.57z"/>
			<path class="st94" d="M190.74,157.36l11.61,5.65c0.07,1.56,0.24,3.13,0.58,4.61c-3.64,0.3-9.57-2.38-11.05-5.88
				C191.15,160,190.7,158.26,190.74,157.36z"/>
			<path class="st107" d="M171.03,141.82c5.98,12.41,8.24,17.78,17.39,22.04c13.76,6.41,27.84-2.73,25.72-16.46
				c-1.91-12.36-11.36-30.58-26-31.27C173.73,115.45,165.05,129.41,171.03,141.82z"/>
			<path class="st106" d="M176.27,123.79c6.5,9.24,6.17,24.37-1.49,26.43c-11.68-1.8-14.16-4.82-14.16-4.82
				S164.39,116.93,176.27,123.79z"/>
			<path class="st106" d="M167.12,127.59c17.19,2.19,30.87-4.99,33.44-9.01C185,108.06,168.83,117.01,167.12,127.59z"/>
			<path class="st110" d="M203,134.65c0,0,3.77,3.95,6.7,5.46c-0.84,1.8-3.48,2.04-3.48,2.04L203,134.65z"/>
			<path class="st106" d="M202.18,147.88c0.59-0.1,1.21-0.25,1.85-0.47c0.17-0.06,0.25-0.25,0.18-0.42
				c-0.07-0.17-0.27-0.26-0.45-0.2c-4.66,1.63-8.24-0.87-8.27-0.89c-0.16-0.11-0.37-0.09-0.47,0.06c-0.1,0.14-0.06,0.35,0.09,0.46
				C195.24,146.52,198.12,148.53,202.18,147.88z"/>
			<path class="st107" d="M171.79,154.58c2.71,1.51,5.55,1.64,7.6,0.92c3.07-1.08,2.17-4.84-0.73-7.23
				c-2.61-2.15-7.35-4.18-9.46-1.8C167.13,148.83,168.69,152.85,171.79,154.58z"/>
			<path class="st4" d="M177.27,155.34c-2.34,0-4.23,1.89-4.23,4.24c0,2.34,1.89,4.23,4.23,4.23c2.34,0,4.24-1.89,4.24-4.23
				C181.52,157.23,179.62,155.34,177.27,155.34z M177.27,162.83c-1.79,0-3.24-1.45-3.24-3.24c0-1.8,1.45-3.26,3.24-3.26
				c1.8,0,3.26,1.45,3.26,3.26C180.53,161.37,179.08,162.83,177.27,162.83z"/>
			<path class="st106" d="M186.74,133.68c0.15-0.1,0.25-0.25,0.28-0.43c0.4-2.85,2.68-3.82,2.71-3.83c0.34-0.14,0.49-0.52,0.32-0.85
				c-0.16-0.33-0.58-0.48-0.92-0.34c-0.12,0.05-2.98,1.27-3.48,4.81c-0.05,0.35,0.22,0.69,0.6,0.75
				C186.43,133.81,186.6,133.77,186.74,133.68z"/>
			<path class="st106" d="M207.39,125.98c0.17-0.02,0.32-0.1,0.43-0.24c0.22-0.28,0.15-0.7-0.16-0.93c-3.06-2.32-5.99-1.44-6.11-1.4
				c-0.35,0.11-0.52,0.48-0.38,0.83c0.14,0.35,0.53,0.54,0.88,0.43c0.11-0.04,2.4-0.69,4.83,1.16
				C207.02,125.95,207.21,126,207.39,125.98z"/>
		</g>
		<path class="st106" d="M207.18,130.88c0.37,1.08,0.1,2.15-0.61,2.39c-0.71,0.24-1.59-0.45-1.96-1.53
			c-0.37-1.08-0.1-2.15,0.61-2.39C205.93,129.12,206.8,129.8,207.18,130.88z"/>
		<path class="st106" d="M194.57,136.07c0.37,1.08,0.1,2.15-0.61,2.39c-0.71,0.24-1.59-0.45-1.96-1.53
			c-0.37-1.08-0.1-2.15,0.61-2.39C193.32,134.31,194.2,134.99,194.57,136.07z"/>
		<path class="st106" d="M192,135.18l1.18-2.56C193.19,132.62,193.87,135.06,192,135.18z"/>
		<path class="st106" d="M204.52,130.14l1.18-2.56C205.71,127.59,206.39,130.02,204.52,130.14z"/>
		<path class="st111" d="M189.31,205.67l-12.61,4.74c5.19,9.62,9.3,17.6,12.45,24.51C187.85,219.64,189.31,205.67,189.31,205.67z"/>
		<g>
			
				<rect x="268.36" y="306.96" transform="matrix(-1 -1.224647e-16 1.224647e-16 -1 553.3009 852.913)" class="st93" width="16.59" height="238.99"/>
			<polygon class="st94" points="268.36,306.96 284.95,306.96 284.95,347.16 268.36,342.88 			"/>
			<path class="st93" d="M217.38,336.72h147.95v-27.71c0-20.97-17-37.97-37.97-37.97h-72.01c-20.97,0-37.97,17-37.97,37.97V336.72z"
				/>
			<path class="st107" d="M228.29,291.32l-2.46-3.51c-0.92-1.32-2.43-2.11-4.04-2.12l-7.53-0.06c-3.01-0.02-5.84,1.41-7.61,3.85
				l-1.09,1.51c3.68,6.1,12.14,9.97,12.14,9.97l2.29,1.37c2.04,1.22,4.54,0.66,5.75-1.3l2.78-4.5
				C229.5,294.97,229.4,292.9,228.29,291.32z"/>
			<g>
				<path class="st93" d="M194.03,202.09c-0.38,0.79-0.88,1.96-1.31,2.98l-1.29,3.22c-0.84,2.17-1.63,4.36-2.37,6.56
					c-1.47,4.41-2.66,8.87-3.58,13.29c-0.44,2.21-0.81,4.4-1.08,6.57c-0.23,2.16-0.37,4.28-0.37,6.33c0,4.07,0.63,7.82,1.85,10.43
					l0.54,1.17c0.04,0.09,0.08,0.2,0.11,0.3c0.6,2.32,2.2,5.22,4.23,7.99c2.04,2.79,4.48,5.56,7.13,8.21
					c2.67,2.63,5.53,5.17,8.5,7.61c1.49,1.22,3.02,2.39,4.56,3.54c1.51,1.14,3.17,2.31,4.61,3.26l-8.25,13.02
					c-1.96-1.24-3.64-2.37-5.42-3.58c-1.75-1.2-3.47-2.44-5.19-3.7c-3.44-2.51-6.79-5.17-10.06-8.04c-3.28-2.87-6.49-5.92-9.51-9.46
					c-1.51-1.76-2.96-3.67-4.33-5.77c-1.35-2.11-2.66-4.4-3.69-7.08l0.65,1.46c-3.57-6.22-4.75-12.57-5.25-18.43
					c-0.44-5.9-0.14-11.51,0.46-16.98c0.63-5.46,1.61-10.76,2.79-15.98c0.59-2.61,1.23-5.21,1.94-7.79
					c0.35-1.29,0.72-2.58,1.11-3.88c0.4-1.33,0.76-2.51,1.3-4.05L194.03,202.09z"/>
				<path class="st108" d="M194.03,202.09c-0.38,0.79-0.88,1.96-1.31,2.98l-1.29,3.22c-0.84,2.17-1.63,4.36-2.37,6.56
					c-1.47,4.41-2.66,8.87-3.58,13.29c-0.44,2.21-0.81,4.4-1.08,6.57c-0.23,2.16-0.37,4.28-0.37,6.33c0,4.07,0.63,7.82,1.85,10.43
					l0.54,1.17c0.04,0.09,0.08,0.2,0.11,0.3c0.6,2.32,2.2,5.22,4.23,7.99c2.04,2.79,4.48,5.56,7.13,8.21
					c2.67,2.63,5.53,5.17,8.5,7.61c1.49,1.22,3.02,2.39,4.56,3.54c1.51,1.14,3.17,2.31,4.61,3.26l-8.25,13.02
					c-1.96-1.24-3.64-2.37-5.42-3.58c-1.75-1.2-3.47-2.44-5.19-3.7c-3.44-2.51-6.79-5.17-10.06-8.04c-3.28-2.87-6.49-5.92-9.51-9.46
					c-1.51-1.76-2.96-3.67-4.33-5.77c-1.35-2.11-2.66-4.4-3.69-7.08l0.65,1.46c-3.57-6.22-4.75-12.57-5.25-18.43
					c-0.44-5.9-0.14-11.51,0.46-16.98c0.63-5.46,1.61-10.76,2.79-15.98c0.59-2.61,1.23-5.21,1.94-7.79
					c0.35-1.29,0.72-2.58,1.11-3.88c0.4-1.33,0.76-2.51,1.3-4.05L194.03,202.09z"/>
			</g>
			
				<rect x="217.38" y="310.21" transform="matrix(-1 -1.224647e-16 1.224647e-16 -1 506.7777 638.7212)" class="st109" width="72.01" height="18.3"/>
			<path class="st94" d="M289.39,336.72v-27.71c0-20.97,17-37.97,37.97-37.97s37.97,17,37.97,37.97v27.71"/>
			
				<rect x="289.39" y="336.72" transform="matrix(-1 -1.224647e-16 1.224647e-16 -1 682.6951 678.3176)" class="st93" width="103.91" height="4.87"/>
			
				<rect x="317.36" y="336.72" transform="matrix(-1 -1.224647e-16 1.224647e-16 -1 710.6606 678.3176)" class="st94" width="75.94" height="4.87"/>
			
				<rect x="276.65" y="252.7" transform="matrix(-1 -1.224647e-16 1.224647e-16 -1 555.9949 569.5343)" class="st112" width="2.69" height="64.14"/>
			<path class="st93" d="M261.34,265.14h18.81v-9.2c0-0.68-0.55-1.23-1.23-1.23h-17.59l3.08,5.22L261.34,265.14z"/>
		</g>
	</g>
</g>
</svg>
