<?xml version="1.0" encoding="utf-8"?>
<!-- Generator: Adobe Illustrator 24.3.0, SVG Export Plug-In . SVG Version: 6.00 Build 0)  -->
<svg version="1.1" id="Layer_1" xmlns="http://www.w3.org/2000/svg" xmlns:xlink="http://www.w3.org/1999/xlink" x="0px" y="0px"
	 viewBox="0 0 100 100" style="enable-background:new 0 0 100 100;" xml:space="preserve">
<style type="text/css">
	.st0{fill:#F1F2F2;}
	.st1{fill:url(#SVGID_1_);}
	.st2{fill:url(#SVGID_2_);}
	.st3{fill:url(#SVGID_3_);}
	.st4{fill:url(#SVGID_4_);}
	.st5{fill:url(#SVGID_5_);}
	.st6{fill:url(#SVGID_6_);}
	.st7{fill:url(#SVGID_7_);}
	.st8{fill:url(#SVGID_8_);}
	.st9{fill:url(#SVGID_9_);}
	.st10{fill:url(#SVGID_10_);}
</style>
<circle class="st0" cx="50" cy="50" r="45.25"/>
<g>
	<linearGradient id="SVGID_1_" gradientUnits="userSpaceOnUse" x1="32.6133" y1="59.6038" x2="67.3735" y2="59.6038">
		<stop  offset="0" style="stop-color:#27AAE1"/>
		<stop  offset="0.1382" style="stop-color:#2A9FE4"/>
		<stop  offset="0.7077" style="stop-color:#3775F0"/>
		<stop  offset="1" style="stop-color:#3C65F5"/>
	</linearGradient>
	<path class="st1" d="M44.71,60.03c-5.91-4.15-5.1-11.33-1.6-14.95c3.72-3.85,10.07-3.85,13.75-0.02C60.44,48.8,61.1,55.94,55.32,60
		c0.27,0.11,0.5,0.21,0.73,0.29c1.9,0.64,3.81,1.26,5.7,1.92c3.43,1.2,5.59,4.24,5.62,7.89c0.01,1.18,0.01,2.36,0,3.53
		C67.34,75.59,65.98,77,64.04,77c-9.37,0.01-18.73,0.01-28.1,0c-1.92,0-3.3-1.38-3.3-3.29c-0.01-1.74-0.11-3.5,0.17-5.2
		c0.51-3.09,2.42-5.19,5.36-6.27C40.29,61.46,42.46,60.79,44.71,60.03z M50.01,74.44c4.55,0,9.1,0,13.64,0
		c0.97,0,1.13-0.16,1.14-1.11c0.01-1.04,0.01-2.09,0-3.13c-0.02-2.67-1.46-4.73-3.99-5.6c-2.52-0.87-5.06-1.7-7.59-2.54
		c-1.74-0.57-3.55-0.79-5.3-0.27c-3.17,0.93-6.34,1.94-9.42,3.13c-2.12,0.82-3.17,2.63-3.28,4.92c-0.05,1.15-0.02,2.3-0.02,3.45
		c0,1.01,0.14,1.15,1.17,1.15C40.91,74.44,45.46,74.44,50.01,74.44z M49.93,58.89c4.04,0.04,7.11-2.95,7.15-6.96
		c0.04-3.97-2.97-7.03-6.95-7.08c-4.12-0.05-7.18,2.9-7.22,6.96C42.88,55.83,45.87,58.85,49.93,58.89z"/>
	<linearGradient id="SVGID_2_" gradientUnits="userSpaceOnUse" x1="63.6675" y1="59.6266" x2="86.0002" y2="59.6266">
		<stop  offset="0" style="stop-color:#27AAE1"/>
		<stop  offset="0.1382" style="stop-color:#2A9FE4"/>
		<stop  offset="0.7077" style="stop-color:#3775F0"/>
		<stop  offset="1" style="stop-color:#3C65F5"/>
	</linearGradient>
	<path class="st2" d="M66.85,59.85c-4.55-3.9-3.65-9.4-0.85-12.17c3.12-3.1,8.12-3.15,11.3-0.13c2.95,2.81,3.82,8.41-0.74,12.33
		c1.38,0.46,2.69,0.92,4.02,1.35c3.64,1.18,5.42,3.58,5.42,7.39c0,0.78,0.01,1.55,0,2.33c-0.03,1.68-1.19,2.95-2.85,2.97
		c-3.93,0.04-7.87,0.02-11.8,0.01c-0.85,0-1.43-0.6-1.4-1.33c0.03-0.72,0.57-1.22,1.41-1.22c3.69-0.01,7.39-0.02,11.08,0.01
		c0.75,0.01,1.07-0.19,1.01-0.99c-0.07-0.82,0.02-1.66-0.03-2.49c-0.1-1.78-0.94-3.2-2.6-3.83c-2.49-0.94-5.05-1.74-7.61-2.47
		c-1.82-0.52-3.6,0.02-5.33,0.65c-0.7,0.26-1.29,0.12-1.66-0.53c-0.36-0.64-0.2-1.24,0.39-1.7C66.67,59.97,66.75,59.91,66.85,59.85z
		 M77.05,53.36c0-3-2.4-5.46-5.36-5.47c-2.95-0.01-5.4,2.44-5.43,5.42c-0.03,2.99,2.47,5.54,5.42,5.53
		C74.63,58.82,77.05,56.36,77.05,53.36z"/>
	<linearGradient id="SVGID_3_" gradientUnits="userSpaceOnUse" x1="13.9998" y1="59.6138" x2="36.3532" y2="59.6138">
		<stop  offset="0" style="stop-color:#27AAE1"/>
		<stop  offset="0.1382" style="stop-color:#2A9FE4"/>
		<stop  offset="0.7077" style="stop-color:#3775F0"/>
		<stop  offset="1" style="stop-color:#3C65F5"/>
	</linearGradient>
	<path class="st3" d="M23.52,59.86c-2.34-1.94-3.47-4.32-3.22-7.26c0.18-2.09,1.07-3.85,2.64-5.25c3.28-2.94,8.31-2.69,11.28,0.51
		c2.77,2.98,3.26,8.32-1.03,11.94c0.11,0.1,0.22,0.19,0.32,0.29c0.51,0.45,0.62,1.01,0.31,1.59c-0.33,0.62-0.89,0.81-1.57,0.59
		c-0.74-0.23-1.47-0.49-2.22-0.68c-1.59-0.42-3.14-0.13-4.66,0.36c-1.98,0.64-3.96,1.3-5.92,2c-1.7,0.61-2.8,2.2-2.84,4
		c-0.02,0.83,0.03,1.66-0.02,2.49c-0.04,0.7,0.19,0.93,0.9,0.92c3.53-0.03,7.07-0.01,10.6-0.01c0.27,0,0.54-0.02,0.8,0.02
		c0.63,0.09,1.02,0.47,1.09,1.1c0.07,0.67-0.23,1.15-0.87,1.35c-0.27,0.09-0.58,0.09-0.87,0.09c-3.64,0.01-7.28,0.01-10.92,0
		c-2.12,0-3.29-1.16-3.28-3.27c0-1.15-0.09-2.32,0.07-3.45c0.41-2.88,2.04-4.82,4.79-5.79C20.37,60.89,21.87,60.41,23.52,59.86z
		 M33.65,53.34c-0.01-3-2.42-5.45-5.38-5.45c-2.95,0-5.39,2.46-5.4,5.44c-0.01,3,2.48,5.53,5.44,5.5
		C31.25,58.81,33.65,56.34,33.65,53.34z"/>
	<linearGradient id="SVGID_4_" gradientUnits="userSpaceOnUse" x1="38.4603" y1="24.2797" x2="61.5787" y2="24.2797">
		<stop  offset="0" style="stop-color:#27AAE1"/>
		<stop  offset="0.1382" style="stop-color:#2A9FE4"/>
		<stop  offset="0.7077" style="stop-color:#3775F0"/>
		<stop  offset="1" style="stop-color:#3C65F5"/>
	</linearGradient>
	<path class="st4" d="M48.72,19.77c0-2.27,0-4.54,0-6.81c0-0.27-0.01-0.54,0-0.8c0.04-0.83,0.53-1.36,1.27-1.36
		c0.74-0.01,1.27,0.52,1.29,1.34c0.02,1.53,0.01,3.05,0.01,4.58c0,1.02,0,2.03,0,3.08c0.53,0.11,1.03,0.2,1.52,0.32
		c7.27,1.78,10.96,10.11,7.38,16.68c-0.04,0.07-0.07,0.15-0.11,0.21c-0.43,0.7-1.13,0.94-1.77,0.6c-0.64-0.34-0.87-1.06-0.48-1.8
		c0.69-1.33,1.13-2.71,1.17-4.21c0.11-5.23-4.03-9.34-9.28-9.24c-5.04,0.1-9.03,4.47-8.65,9.58c0.09,1.14,0.58,2.26,0.9,3.38
		c0.06,0.2,0.21,0.38,0.28,0.57c0.25,0.65,0.17,1.24-0.44,1.63c-0.6,0.39-1.31,0.31-1.63-0.28c-0.56-1.01-1.1-2.08-1.37-3.2
		c-1.75-7.21,3.45-13.34,9.48-14.14C48.41,19.88,48.54,19.83,48.72,19.77z"/>
</g>
</svg>
