<?xml version="1.0" encoding="utf-8"?>
<!-- Generator: Adobe Illustrator 24.3.0, SVG Export Plug-In . SVG Version: 6.00 Build 0)  -->
<svg version="1.1" id="Layer_1" xmlns="http://www.w3.org/2000/svg" xmlns:xlink="http://www.w3.org/1999/xlink" x="0px" y="0px"
	 viewBox="0 0 100 100" style="enable-background:new 0 0 100 100;" xml:space="preserve">
<style type="text/css">
	.st0{fill:#F1F2F2;}
	.st1{fill:url(#SVGID_1_);}
	.st2{fill:url(#SVGID_2_);}
	.st3{fill:url(#SVGID_3_);}
	.st4{fill:url(#SVGID_4_);}
	.st5{fill:url(#SVGID_5_);}
	.st6{fill:url(#SVGID_6_);}
	.st7{fill:url(#SVGID_7_);}
	.st8{fill:url(#SVGID_8_);}
	.st9{fill:url(#SVGID_9_);}
	.st10{fill:url(#SVGID_10_);}
</style>
<circle class="st0" cx="49.5" cy="50.44" r="45.25"/>
<linearGradient id="SVGID_1_" gradientUnits="userSpaceOnUse" x1="21.7963" y1="50.4862" x2="77.0623" y2="50.4862">
	<stop  offset="0" style="stop-color:#27AAE1"/>
	<stop  offset="0.1382" style="stop-color:#2A9FE4"/>
	<stop  offset="0.7077" style="stop-color:#3775F0"/>
	<stop  offset="1" style="stop-color:#3C65F5"/>
</linearGradient>
<path class="st1" d="M58.47,74.04c-1.39-1.42-3.04-2.26-4.95-2.63c-1.62-0.32-3.23-0.13-4.77,0.35c-4.95,1.53-9.5,0.57-13.74-2.18
	c-4.02-2.6-7.77-5.56-11.27-8.84c-0.62-0.58-1.16-1.31-1.55-2.07c-0.58-1.12-0.54-2.31,0.28-3.34c0.81-1.02,1.94-1.33,3.19-1.14
	c0.76,0.12,1.49,0.41,2.24,0.62c0.85-8.01,3.89-15.03,9.67-20.83c-0.79-0.77-1.3-1.71-1.07-2.89c0.22-1.15,0.93-1.9,2.03-2.34
	c-0.29-0.54-0.6-1.05-0.84-1.59c-1.56-3.44-0.12-7.13,3.24-8.24c1.98-0.65,3.79-0.25,5.43,0.97c2.25-1.71,5.36-1.86,7.66,0.37
	c1.66,1.61,2.75,4.46,0.22,8.47c1.06,0.45,1.83,1.18,2.03,2.35c0.19,1.14-0.18,2.11-1.08,2.87c0.76,0.83,1.55,1.59,2.23,2.43
	c4.29,5.32,6.77,11.39,7.4,18.2c0.07,0.75-0.01,1.52,0.01,2.28c0.01,0.22,0.08,0.48,0.22,0.65c0.41,0.5,0.88,0.95,1.31,1.44
	c0.42,0.47,0.82,0.95,1.29,1.5c0.21-0.31,0.41-0.59,0.6-0.87c1.27-1.82,3.38-2.22,5.23-0.99c0.61,0.41,1.22,0.83,1.82,1.25
	c1.9,1.33,2.31,3.39,1.01,5.31c-2.85,4.24-5.72,8.48-8.58,12.71c-0.62,0.92-1.24,1.86-1.88,2.77c-1.31,1.88-3.43,2.27-5.33,0.97
	c-0.65-0.44-1.3-0.87-1.93-1.33c-1.65-1.19-2.04-3.26-0.96-4.99C57.89,74.89,58.17,74.48,58.47,74.04z M62.77,55.42
	c0.05-0.08,0.09-0.11,0.09-0.14c0.01-0.18,0.01-0.36,0-0.54c-0.23-3.59-1.25-6.97-2.72-10.23c-1.6-3.53-3.66-6.75-6.61-9.33
	c-0.46-0.41-0.93-0.6-1.56-0.6c-3.28,0.03-6.57,0.12-9.85-0.03c-1.74-0.08-2.93,0.52-4.07,1.74c-3.45,3.68-5.74,8.01-7.08,12.83
	c-0.56,2.01-0.75,4.11-1.08,6.18c-0.03,0.19,0.08,0.54,0.22,0.61c1.78,0.86,3.58,1.68,5.4,2.52c0.81-2.01,2.4-2.79,4.36-3.01
	c1.15-0.13,2.35-0.05,3.46-0.34c1.67-0.45,3.29-1.12,4.9-1.75c1.58-0.62,3.15-1.27,4.87-1.37c3.4-0.2,6.34,1.02,9.02,2.99
	C62.34,55.11,62.55,55.26,62.77,55.42z M66.5,62.17c-1.73-2.1-3.45-4.1-5.59-5.68c-2.41-1.77-5.06-2.96-8.1-2.48
	c-1.6,0.26-3.17,0.89-4.67,1.54c-2.43,1.05-4.9,1.79-7.56,1.78c-0.48,0-0.98,0.1-1.45,0.24c-0.82,0.24-1.6,0.64-1.7,1.59
	c-0.11,0.99,0.45,1.73,1.28,2.18c0.6,0.32,1.28,0.6,1.94,0.66c2.33,0.18,4.68,0.26,7.02,0.38c0.73,0.04,1.13,0.35,1.14,0.94
	c0.02,0.62-0.39,1.02-1.15,0.99c-2.32-0.08-4.65-0.1-6.95-0.31c-2.11-0.19-3.93-1.02-4.92-3.09c-0.08-0.18-0.3-0.32-0.49-0.41
	c-2.83-1.32-5.65-2.65-8.5-3.94c-0.54-0.24-1.15-0.4-1.73-0.43c-1.04-0.05-1.56,0.69-1.12,1.63c0.3,0.63,0.77,1.21,1.28,1.69
	c3.33,3.09,6.89,5.89,10.69,8.38c2.36,1.55,4.93,2.71,7.81,2.66c1.65-0.03,3.31-0.42,4.94-0.75c1.7-0.34,3.38-0.58,5.11-0.28
	c2.21,0.39,4.14,1.36,5.84,2.9C61.91,68.96,64.19,65.58,66.5,62.17z M62.74,80.4c0.64,0,1.11-0.29,1.46-0.81
	c0.6-0.89,1.2-1.77,1.8-2.66c2.87-4.25,5.75-8.5,8.62-12.76c0.77-1.14,0.6-2-0.54-2.79c-0.53-0.37-1.06-0.74-1.6-1.1
	c-1.07-0.71-1.95-0.54-2.69,0.53c-0.73,1.07-1.45,2.14-2.18,3.22c-2.71,4.01-5.42,8.03-8.14,12.04c-0.4,0.58-0.65,1.17-0.36,1.88
	C59.4,78.63,61.99,80.39,62.74,80.4z M53.31,26.48c-0.17-0.11-0.22-0.16-0.29-0.18c-3.01-0.88-5.68-2.27-7.78-4.71
	c-1.04-1.21-2.93-1.32-4.33-0.54c-1.38,0.77-2.14,2.36-1.87,3.91c0.22,1.29,0.86,2.39,1.7,3.36c0.15,0.17,0.45,0.28,0.68,0.28
	c3.31,0.02,6.61,0.01,9.92,0.01c0.19,0,0.46-0.02,0.55-0.14C52.39,27.83,52.84,27.15,53.31,26.48z M46.36,32.65
	c2.14,0,4.29,0,6.43,0c0.18,0,0.36,0.01,0.54-0.01c0.61-0.06,1.03-0.49,1.03-1.03c0-0.55-0.41-0.97-1.02-1.04
	c-0.13-0.02-0.27-0.01-0.4-0.01c-4.37,0-8.75,0-13.12,0c-0.22,0-0.51-0.04-0.65,0.08c-0.29,0.26-0.61,0.58-0.71,0.93
	c-0.13,0.48,0.2,0.85,0.68,1c0.23,0.07,0.48,0.07,0.73,0.07C42.03,32.65,44.19,32.65,46.36,32.65z M53.69,24.43
	c0.15-1.38-0.64-2.75-1.93-3.43c-1.3-0.68-2.88-0.54-3.99,0.4C49.48,22.95,51.5,23.84,53.69,24.43z"/>
</svg>
